<svg xmlns="http://www.w3.org/2000/svg"><defs><font id="Butler" horiz-adv-x="693"><font-face font-family="Butler" font-weight="400" panose-1="2 7 8 3 8 7 6 2 3 3" ascent="735" descent="-265" x-height="462" cap-height="704" bbox="-146 -265 1055 979" underline-thickness="50" underline-position="-200" unicode-range="U+0020-FB02"/><glyph glyph-name="f_i" unicode="fi" horiz-adv-x="524" d="M486 8V0H318v8q27 8 33 23t6 57v296q0 65-50 65H170V85q0-40 10.5-56T218 8V0H43v8q27 6 33.5 20.5T83 85v364H19l-2 13h66v11q0 151 55.5 211.5T307 745q48 0 84.5-21.5T436 663t-8-60q-13-17-35.5-20T354 593q-18 14-20.5 35.5T345 668q17 20 34 19 14-1 6 13-14 25-59 31-9 1-19 1-17 0-31-2.5t-35-16-35.5-38-25-73.5T170 486v-24h275V88q0-43 7.5-58T486 8z"/><glyph glyph-name="f_l" unicode="fl" horiz-adv-x="519" d="M496 13V0H328v13q27 8 33 21t6 54v558q0 59-69 70-12 4-26.5 2t-30-6-30-20.5-25.5-41-18-68-7-100.5v-20h107l-2-13H161V85q0-40 10.5-53.5T210 12V0H34v12q27 6 33.5 19.5T74 85v364H9l-1 13h66v40q0 124 45 183.5T243 745q59 0 100-25l112 26V88q0-42 7-55t34-20z"/><glyph glyph-name=".notdef" horiz-adv-x="507" d="M-1 704h508V0H-1v704zm224-352L49 620V85zM86 654l167-256 167 256H86zm167-347L86 50h334zm30 45L457 85v535z"/><glyph glyph-name=".null" horiz-adv-x="0"/><glyph glyph-name="nonmarkingreturn" horiz-adv-x="333"/><glyph glyph-name="space" horiz-adv-x="250"/><glyph glyph-name="exclam" unicode="!" horiz-adv-x="294" d="M172 189h-48l-22 556h93zm34-139q0 25-17 42t-42 17q-24 0-41.5-17T88 50q0-24 17.5-41.5T147-9q25 0 42 17.5T206 50z"/><glyph glyph-name="quotedbl" unicode="&quot;" horiz-adv-x="474" d="M313 376l-25 328h96l-24-328h-47zm-186 0l-26 328h96l-24-328h-46z"/><glyph glyph-name="numbersign" unicode="#" horiz-adv-x="702" d="M447 478H287l-40-178h159zm206 0H510l-41-178h121v-59H456L401 0h-63l55 241H233L178 0h-63l55 241H40v59h144l40 178H103v59h134l49 209h63l-48-209h159l49 209h63l-49-209h130v-59z"/><glyph glyph-name="dollar" unicode="$" horiz-adv-x="538" d="M276 4q60 2 94.5 31t38.5 68.5-15.5 81.5-58.5 70l-59 38V4zm-28 432v264q-40-1-72-24.5t-44.5-58 6-77.5 71.5-78zm126-82q49-32 80-69.5t42-74 6.5-71.5T478 72q-13-15-22.5-23.5t-33.5-24-61-24T276-9v-121h-28V-9Q186-6 134.5 8T62 34L42 47v192h8q9-99 53.5-161.5T248 5v307l-79 51Q-30 495 60 635q2 3 6 8.5T86.5 662t36 23.5 53 19T248 713v123h28V713q57-3 107-14.5t72-22.5l22-10V497h-9q-21 191-192 202V418z"/><glyph glyph-name="percent" unicode="%" horiz-adv-x="975" d="M709 37q37 0 53.5 32.5T779 200q0 99-17.5 134.5T709 370q-37 0-54-35.5T638 200q0-97 17-130t54-33zm0 346q39 0 66.5-16t41.5-44 20-57.5 6-65.5q0-176-134-176T575 200q0 183 134 183zM205 495q0-97 17-130t53-33q38 0 54.5 32.5T346 495t-17.5 134-53.5 36-53-35.5T205 495zm204 0q0-176-134-176T141 495q0 183 134 183t134-183zm337 209L290 0h-53l456 704h53z"/><glyph glyph-name="ampersand" unicode="&amp;" horiz-adv-x="788" d="M298 720q-46-17-53.5-72.5T273 539l71-103q62 39 86.5 89.5t17 91.5-34.5 74q-22 23-53 31.5t-62-2.5zM188 95q31-37 80-47.5t98 13 73 79.5L273 380l-56-35q-32-22-53-59t-18.5-90T188 95zm533 6h13q-1-50-31.5-78.5T632-9q-10-1-25-.5T558 3t-51 38l-58 87q-13-42-53.5-77T305-.5t-105-3T108 58q-30 38-37 77.5t4 72 34 62.5 48 51 52 36l56 34-50 74q-70 101-46 180.5T281 741q94 16 144-41 18-21 28-50t9.5-66.5-28.5-80-82-79.5l134-198q40 100 119 118 39 8 62-11 15-12 17.5-32.5T672 262q-14-16-34.5-17.5T600 256q-15 13-17 34 0 14-22 7-36-12-59-62-4-9-8-20l79-114q14-20 34-32t33-13l13-2q61 0 68 47z"/><glyph glyph-name="quotesingle" unicode="'" horiz-adv-x="242" d="M100 376L75 704h96l-24-328h-47z"/><glyph glyph-name="parenleft" unicode="(" horiz-adv-x="320" d="M308 746l12-11Q168 555 168 252q0-310 150-445l-12-12q-92 52-159.5 184T79 255q0 143 68.5 285T308 746z"/><glyph glyph-name="parenright" unicode=")" horiz-adv-x="321" d="M-3 735l12 11q92-64 160.5-206T238 255q0-144-67.5-276T11-205l-12 12Q149-58 149 252q0 303-152 483z"/><glyph glyph-name="asterisk" unicode="*" horiz-adv-x="544" d="M478 525l-183-34 129-134-64-47-89 164-89-164-63 47 129 134-184 34 25 75 167-81-25 185h80l-25-185 168 81z"/><glyph glyph-name="plus" unicode="+" horiz-adv-x="715" d="M657 344v-68H390V0h-67v276H56v68h267v275h67V344h267z"/><glyph glyph-name="comma" unicode="," horiz-adv-x="227" d="M78-126l-6 8q31 22 44.5 49T128-25 117-7Q93-4 78 10 61 27 60.5 51.5T77 93t41.5 17T160 93q24-31 19-72t-28-78q-30-47-73-69z"/><glyph glyph-name="hyphen" unicode="-" horiz-adv-x="444" d="M379 220H64v68h315v-68z"/><glyph glyph-name="period" unicode="." horiz-adv-x="222" d="M114-5Q89-5 72 12T55 54t17 42.5 42 17.5q24 0 41.5-17.5T173 54t-17.5-42T114-5z"/><glyph glyph-name="slash" unicode="/" horiz-adv-x="412" d="M393 725L85-21H14l308 746h71z"/><glyph glyph-name="zero" unicode="0" horiz-adv-x="609" d="M465 346q0 354-161 354-76 0-119-78.5T142 346q0-102 12.5-171.5t36-105.5T241 18.5 304 4q37 0 64 14.5T418 69t35 105.5T465 346zm108 0Q573-9 304-9 34-9 34 346q0 56 6.5 104.5t25 98.5 47.5 85 78 57 113 22 112.5-22 77.5-57 47.5-85 25-98.5T573 346z"/><glyph glyph-name="one" unicode="1" horiz-adv-x="385" d="M324 12V0H78v12q19 0 30.5 2t25 9 20 24 6.5 43v477q0 81-92 9l-8 11 154 126h33V90q0-27 6.5-44T273 22t23-8.5 28-1.5z"/><glyph glyph-name="two" unicode="2" horiz-adv-x="476" d="M427 144h13L400 0H38l221 332q92 138 45 229-29 59-98 69T91 593q-28-28-36-71l-15 3q3 54 23.5 93.5t47 56.5 53 27 44.5 10l18 1q74 0 123-49t49-118q0-32-16.5-68.5t-36-65T277 318q-21-29-60.5-86.5T148 130l-29-43h215q62 0 93 57z"/><glyph glyph-name="three" unicode="3" horiz-adv-x="501" d="M53 48q-23 23-10 57 8 22 29 31t42 1q22-8 31-29t1-43q-10-22-28-28-5-1 4-9t35.5-16T220 4q76 0 112 46.5T361 183q-2 26-12 51t-30.5 51-59.5 44-91 22v14q73 12 111.5 60t33 103-48.5 91q-23 20-56 25t-63.5-4.5T90 606t-30-57l-15 2q3 38 16 68t33.5 46.5 40 27T177 707t33 5 19 1q59 0 103.5-36.5T392 590t-10-107.5-92-95.5q74-21 116.5-70.5T451 210q2-62-19.5-107T373 35 298 1.5 221-9Q110-9 53 48z"/><glyph glyph-name="four" unicode="4" horiz-adv-x="525" d="M294 256v333L97 297q-13-20-14-29t5-10.5 23-1.5h183zm196-53h-97v-82q0-38 5-61t17.5-33T438 15t30-2V0H219v13q19 0 30 2.5T272 27t17 31 5 58v87H27v15l328 490 38-4V256h97v-53z"/><glyph glyph-name="five" unicode="5" horiz-adv-x="535" d="M482 243q6-64-14.5-114.5t-59-79.5-85-43.5T227-9Q118-9 64 49q-24 26-13 59 7 22 28.5 32.5T124 143q22-7 32-28.5t2-44.5q-7-22-29-29-10-4 8-16 29-21 90-21 95 0 148.5 63T402 217q-21 72-109.5 111.5T53 336l60 368h346l-27-93H114L83 425q177 40 283-19t116-163z"/><glyph glyph-name="six" unicode="6" horiz-adv-x="546" d="M403 200q0 104-33 151t-82 47q-59 0-99.5-35T148 279q0-143 31-209t98-66q61 0 93.5 43.5T403 200zm100 18q0-113-59.5-170T277-9Q42-9 42 318q0 167 76 281t193 114q104 0 134-65 7-12 5-29t-12-29q-14-18-37-20.5T360 581t-20.5 37.5T351 659q18 22 36 19l2 1q-2 10-32 16-14 3-31 4-81 5-129.5-87T148 320q40 113 168 113 67 0 111-33.5t60-79.5 16-102z"/><glyph glyph-name="seven" unicode="7" horiz-adv-x="551" d="M64 704h451l-51-87q-90-160-127-321.5T300 0H195q10 152 65 292.5T450 617H148q-36 0-56-13.5T58 559H45z"/><glyph glyph-name="eight" unicode="8" horiz-adv-x="540" d="M394 551q-1 82-37.5 115.5T266 700q-47 0-81.5-31T150 586q0-64 38-103t122-73q31 11 58 50t26 91zM278-9Q36-9 36 159q0 62 50.5 115T205 349q-73 44-103.5 87.5T71 538q0 83 56 129t139 46q89 0 140.5-42T458 557q0-46-38.5-94T326 401q180-89 180-212 0-101-62.5-149.5T278-9zm-22 329q-23 12-36 20-23-11-43.5-27.5t-41.5-57-21-92.5q0-79 46-119T278 4q33 0 63 11.5T395 61t24 85q-1 53-39.5 91T256 320z"/><glyph glyph-name="nine" unicode="9" horiz-adv-x="539" d="M137 506q0-104 33-151t82-47q59 0 98 35t39 84q0 146-29.5 209.5T263 700q-126 0-126-194zM37 489q0 110 60 167t166 57q122 0 177-80.5T495 396q0-195-65-300T233-9Q124-9 91 61q-16 31 7 58 14 19 37 21.5t41-12.5q18-13 20.5-36.5T185 50q-17-19-36-19-7 0 6-9 22-16 63-18 97-4 134 76.5T389 385q-41-112-165-112-51 0-89 19t-58.5 51-30 68.5T37 489z"/><glyph glyph-name="colon" unicode=":" horiz-adv-x="226" d="M114 309q-25 0-42.5 17.5T54 369t17.5 42.5T114 429q24 0 42-17.5t18-42.5-18-42.5-42-17.5zm0-273q-25 0-42.5 17T54 95q0 26 17.5 43.5T114 156q24 0 42-18t18-43q0-24-18-41.5T114 36z"/><glyph glyph-name="semicolon" unicode=";" horiz-adv-x="227" d="M114 309q-25 0-42.5 17.5T54 369t17.5 42.5T114 429t42.5-17.5T174 369t-17.5-42.5T114 309zM74-81q43 22 73 69 23 37 28 78t-19 72q-17 17-41.5 17T73 138 56.5 96.5 74 55q15-14 39-17 9-1 11-18t-11.5-44T68-73z"/><glyph glyph-name="less" unicode="&lt;" horiz-adv-x="600" d="M144 266L553 53v-69L46 244v43l507 260v-70z"/><glyph glyph-name="equal" unicode="=" horiz-adv-x="613" d="M567 349H56v61h511v-61zm0-225H56v61h511v-61z"/><glyph glyph-name="greater" unicode="&gt;" horiz-adv-x="600" d="M47 53l409 213L47 477v70l507-260v-43L47-16v69z"/><glyph glyph-name="question" unicode="?" horiz-adv-x="576" d="M329 58q0-26-19-44.5T265-5t-44.5 18.5T202 58t18.5 44.5T265 121t45-18.5T329 58zm6 276q-77-32-69-129l-20-3q-15 100 52 157 29 25 45 43t29 59.5 8 96.5q-5 54-27 90t-54 49-67 13-68-13q-36-14-35-35 1-10 9-11 19-3 33-21 12-18 8-39.5T158 556q-17-12-39-8t-35 22q-15 21-5 54 5 20 25 45t52 39q83 33 155 27t122.5-53.5T487 562q2-51-12.5-93T434 401t-49.5-41.5T335 334z"/><glyph glyph-name="at" unicode="@" horiz-adv-x="875" d="M519 74q1 7 19 85t21 98q0 11 2.5 36t-12 50.5T505 369q-47 0-85.5-47T368 200q-14-82 10-121.5T444 35q22-2 41 8t27 21zm6 530q88-4 158-46t108.5-125.5T817 240q-7-61-28.5-108T741 59t-58.5-42T625-4t-49-5q-33 0-49 16t-12 43q-7-11-20-22.5t-41.5-24T392-9q-58 0-89 49.5T278 156q3 38 17.5 77t39.5 74 66 56.5 90 21.5q14 0 26-2t21-5.5 16-7.5 11.5-8 7.5-7.5 5-5.5l1-2 6 26 70-1q-55-263-63-299-10-51 30-51 18 0 41 11t48.5 34 45.5 69 26 107q5 29 1.5 62.5t-10.5 67-26.5 65.5-46 57-70 42-97.5 21q-85 7-157-20t-122-78-81-118.5T133 197q-1-7-2.5-20t-1-49.5 7-71 26.5-77T214-95t86.5-56.5T428-182q52-4 103.5 8.5T607-148t35 22l8-10q-3-3-8.5-8t-27-17-46-21.5T502-200t-88-8q-48 0-96.5 10.5t-102 38-93 69.5T59 21.5 40 178q5 102 48 185.5T199 500t152 80 174 24z"/><glyph glyph-name="A" unicode="A" d="M175 226h252L296 558zM673 13V0H445v13q67 0 21 113l-35 87H172q-9-25-12.5-37t-10-37.5T143 99t3.5-33.5 14-29.5T191 19t49-6V0H17v13q23 1 37 10t43 62.5T167 249l167 455h11q54-131 115.5-283.5T556 181l35-87q12-29 22-46t21.5-24 17.5-8.5 21-2.5z"/><glyph glyph-name="B" unicode="B" horiz-adv-x="595" d="M242 691h-44V363h60q27 0 47 6t40 22.5 30.5 52.5 10.5 90q0 52-13 86t-37 48-44.5 18.5T242 691zm299-512q0-37-8.5-65t-21-46.5T475 36t-45-20-57.5-11T309 .5 237 0H37v9q58 0 58 111v466q0 109-58 109v9h200q41 0 67.5-1.5t60-6.5 54-16.5T458 650t27.5-47.5T494 533q0-44-16-77.5T441 405t-47-28-41.5-13.5T327 361q25 0 47.5-2.5t55-13 55.5-29 39.5-54T541 179zm-112 4q0 47-11.5 79.5T391 312t-41.5 26-44.5 10.5-47 1.5h-60V13h44q29 0 41.5.5t37 3.5 36 9T385 44t24.5 30 13.5 45.5 6 63.5z"/><glyph glyph-name="C" unicode="C" horiz-adv-x="671" d="M603 207h13l12-154Q574 17 521.5 4T387-9Q230-9 135 88.5T40 352q0 167 95 264t252 97q85 0 141-12.5T628 652l-12-155h-13q-10 59-33.5 101t-55 63-62.5 30-65 9q-35 0-63-7t-58.5-29-51-59T181 503.5 168 352q0-88 13.5-153.5t34-102 51-58 58.5-28T387 4q33 0 66.5 11T520 48t55.5 63.5T603 207z"/><glyph glyph-name="D" unicode="D" horiz-adv-x="716" d="M536 350q0 67-10 120.5T500.5 559 461 619.5t-46.5 39-53 21-52 9.5-50.5 2h-44V13h44q31 0 50 1t51.5 8T414 41t46.5 37 40 60 25 89T536 350zm120 0q0-87-23-152T574 96t-90-59.5T377.5 7 259 0H44v13q32 0 50 27.5t18 78.5v467q0 48-18 76.5T44 691v13h215q65 0 118.5-8.5t107-32 90-62 59-102.5T656 350z"/><glyph glyph-name="E" unicode="E" horiz-adv-x="596" d="M521 208h13V0H31v13q30 0 42 25t12 79v480q0 50-11.5 72T31 691v13h490V524h-13q-3 39-17.5 69T451 640.5 402 669t-58.5 15.5-54 5.5-47.5 1h-54V362h65q133 0 138 101h13V248h-13q-2 35-19 57.5t-44 31-42.5 10.5-32.5 2h-65V13h89.5l47.5 3.5 53.5 10 47.5 21L471.5 82l31 52.5L521 208z"/><glyph glyph-name="F" unicode="F" horiz-adv-x="539" d="M29 704h495V524h-13q-4 35-17.5 63T464 632.5 420 662t-45.5 17.5-51 8.5-44.5 3h-93V362h64q134 0 143 101h13V248h-13q-9 100-143 100h-64V121q0-67 18.5-87.5T262 13V0H29v13q31 0 42.5 25T83 117v480q0 50-11.5 72T29 691v13z"/><glyph glyph-name="G" unicode="G" horiz-adv-x="721" d="M454 280h235v-13q-17 0-25.5-1.5t-17.5-10-12-21.5-6.5-41.5-4-64T623 33Q514-9 369-9 213-9 126 93.5T39 352t87 258.5T369 713q91 0 148.5-13T622 656l-9-162h-21q-11 117-67.5 161.5T369 700q-95 0-148-77.5T168 352q0-100 15-170t43.5-107.5 63-54T369 4q89 0 127 24t38 85q0 58-2.5 88T518 246.5t-23 18-41 2.5v13z"/><glyph glyph-name="H" unicode="H" horiz-adv-x="601" d="M543 565V136q0-77 7-93 10-21 42-30V0H415v13q19 7 24 30t5 93v193H170V136q0-78 4-97t25-26V0H21v13q38 10 44 28t6 95v429q0 73-8 96.5T21 691v13h178v-13q-20-6-24.5-27.5T170 565V346h274v219q0 77-4.5 98.5T415 691v13h177v-13q-34-6-41.5-28t-7.5-98z"/><glyph glyph-name="I" unicode="I" horiz-adv-x="344" d="M52 704h243v-13q-35 0-52.5-17.5T225 612V107q0-94 70-94V0H52v13q70 0 70 94v505q0 44-17.5 61.5T52 691v13z"/><glyph glyph-name="J" unicode="J" horiz-adv-x="395" d="M94 704h257v-12q-36 0-58-23t-22-70V182q0-166-69-248T4-167l-4 12q168 61 168 324v308q0 148-10.5 181.5T94 692v12z"/><glyph glyph-name="K" unicode="K" horiz-adv-x="727" d="M713 13V0H606q-41 0-65.5 5.5t-53 30-49 52T371 181L260 334l126 153q87 102 96 147 11 56-72 57v13h275v-13q-31 0-55-8.5t-62.5-38-92.5-91T341 390L581 69q44-56 132-56zM41 704h244v-13q-40 0-59-14.5T207 612V105q0-49 16.5-70.5T274 13V0H41v13q33 0 48.5 21t15.5 71v507q0 45-15 62t-49 17v13z"/><glyph glyph-name="L" unicode="L" horiz-adv-x="610" d="M538 217h13V0H52v13q31 0 43 26t12 80v488q0 45-15 64.5T44 691v13h238v-13q-36 0-55-19.5T208 602V13h36q31 0 50 .5t51.5 4 54.5 11T448.5 51t43 36 29.5 54.5 17 75.5z"/><glyph glyph-name="M" unicode="M" horiz-adv-x="902" d="M798 117q0-104 84-104V0H626v13q72 0 72 104v549L456-9h-12L165 603V249q0-49 4.5-86.5t17.5-74 39.5-56T293 13V0H10v13q44 0 74 20t44 56.5 19 73.5 5 86v376q-6 9-12 17.5T128.5 657t-13 11-12.5 8-12.5 5.5-11.5 4-11.5 2.5-10 1.5-9.5.5l-8 1v13h199l260-566 199 566h177v-13q-77 0-77-88V117z"/><glyph glyph-name="N" unicode="N" horiz-adv-x="807" d="M496 704h286v-12q-30 0-53.5-9t-38-21-25-35-15.5-38.5-7.5-46.5-2.5-44V0h-32L183 548V250q0-31 .5-49t4-50.5 12-53 22-42 37.5-32T314 13V0H25v13q30 0 53.5 9T117 43.5t26 35 16 40 7.5 46 3 43.5.5 42v313l-41 53q-12 15-23 26.5t-19 19-17.5 13-14 8.5-13.5 5-11.5 2.5-11 1-9.5.5v12h185l432-558v309q0 28-.5 43t-2.5 44-7 46-14.5 39.5-23 34.5-35 21-48.5 9v12z"/><glyph glyph-name="O" unicode="O" horiz-adv-x="738" d="M575 347q0 192-55.5 272.5T366 700q-47 0-83.5-17t-66-56-45-109.5T156 347t15.5-169T217 72t65.5-52.5T366 4q47 0 83 15.5T514.5 72t45 106T575 347zm116 0q0-157-83.5-256.5T366-9 124.5 90.5 41 347q0 158 84 262t241 104 241-104 84-262z"/><glyph glyph-name="P" unicode="P" horiz-adv-x="580" d="M196 314h18q46 0 71 1.5t58.5 11.5 50.5 29 29.5 55.5T436 502q0 31-4 56.5t-10 44-18 33-21.5 23.5-28 15.5T324 684t-35.5 5-35.5 2h-57V314zm0-13V137q0-44 6-70t21-37.5 29.5-14T295 13V0H31v13q37 0 51.5 25.5T97 134v463q0 53-13.5 73.5T33 691v13h181q66 0 111.5-4t90-16 71-34 42.5-59 16-89-16-89-42.5-58.5-71-33.5-90-16-111.5-4h-18z"/><glyph glyph-name="Q" unicode="Q" horiz-adv-x="734" d="M575 347q0 192-55.5 272.5T366 700q-47 0-83.5-17t-66-56-45-109.5T156 347t15.5-169T217 72t65.5-52.5T366 4q47 0 83 15.5T514.5 72t45 106T575 347zm116 0q0-157-83.5-256.5T366-9 124.5 90.5 41 347q0 158 84 262t241 104 241-104 84-262zM408-75l151-53q26-9 49-9.5t42 6.5 28.5 12.5T702-103l9-10-75-62q-38-30-80-34t-89 10-136 53l-77 34q-72 29-149-24l-10 11q41 34 88 51.5T268.5-55t71-3T390-68z"/><glyph glyph-name="R" unicode="R" horiz-adv-x="643" d="M419 513q0 37-6 65.5T399.5 626t-24 32-29 19.5-37 9.5-39 3.5-43.5.5h-38V336h31q28 0 41.5.5t37 2T333 345t28 13 25 21 17 31 12.5 44 3.5 59zM637 13V0H512l-32.5 7L456 18.5l-16.5 29-16 42L407 156q-10 39-16 62-28 105-155 105h-47V104q0-50 15.5-70.5T253 13V0H29v13q34 0 48 21.5T91 117v498q0 45-14 60.5T29 691v13h191q65 0 109-4t85-15.5 64.5-32 37-55.5 13.5-84q0-96-48.5-136.5T343 330q25-1 40-3.5t38.5-15.5 40-35.5 35-67T530 101q19-81 107-88z"/><glyph glyph-name="S" unicode="S" horiz-adv-x="564" d="M479 73q-2-3-5.5-8.5t-19.5-20-36-25T361 0t-80-9Q209-9 149.5 5T66 33L43 47v192h12q5-50 17-89t36-73.5T176 23 281 4q73 0 107.5 45.5t19.5 106T336 256L170 363Q-30 496 61 635q2 3 6 8.5t20 19 35.5 23.5 53.5 18.5 73 8.5q64 0 121.5-11.5T453 678l25-12V498h-14q-4 41-14.5 73.5t-33 63.5-65 48T249 700q-40 0-72-23.5t-45-58 6-77.5 72-78l165-109q65-42 98-93.5t31.5-98T479 73z"/><glyph glyph-name="T" unicode="T" horiz-adv-x="652" d="M19 704h612V528h-13q-1 38-13.5 67.5T571 642t-41.5 28-44 15-34 5-18.5 1h-59V97q0-84 73-84V0H203v13q35 0 53.5 18.5T275 97v594h-59q-16 0-31-1t-45-10-51-24.5-38.5-49T32 528H19v176z"/><glyph glyph-name="U" unicode="U" horiz-adv-x="716" d="M322-9Q220-9 155 56.5T90 240v364q0 48-18 67.5T19 691v13h249v-13q-39 0-59-17t-20-71V231q0-92 50-143.5T371 36q79 0 130 53t51 147v272q0 30-1 47t-4 41.5-10.5 38.5-20.5 28.5-34 21-49 6.5v13h260v-13q-27 0-48-6t-34.5-13-22.5-24-13.5-27.5-7-36-2.5-36V236q0-125-70-185T322-9z"/><glyph glyph-name="V" unicode="V" horiz-adv-x="743" d="M471 704h248v-13q-21 0-30.5-1t-25.5-8-26.5-21-26.5-40.5-33-67.5-40-101L365 0h-14q-55 131-115.5 285.5T142 529l-33 89q-10 25-21.5 41t-25 22.5-23 8T14 691v13h269v-13q-29 0-44.5-12T221 648.5t-1-29 3-17.5l178-477 124 329q34 102 38 137 8 99-92 100v13z"/><glyph glyph-name="W" unicode="W" horiz-adv-x="1056" d="M785 704h254v-13q-40 0-63.5-15t-52-65.5T854 452L690 0h-14L510 445 359 0h-15L108 613q-19 49-41.5 63.5T12 691v13h270v-13q-30 0-46.5-11.5t-18-30-.5-27 4-17.5l172-468 110 327-52 149q-19 49-41.5 63.5T355 691v13h269v-13q-25 0-40.5-9T563 663.5t-4.5-26 2-20.5 3.5-12l164-471 113 321q31 101 34 132 9 103-90 104v13z"/><glyph glyph-name="X" unicode="X" horiz-adv-x="731" d="M593 101q37-57 61-72t59-17V0H456v12q68 9 2 113L343 308l-55-82q-56-107-59-113-33-75 10-93 19-8 50-8V0H31v12q26 0 40.5 4t43 23 68 67.5T277 237l57 84-189 280q-40 59-65.5 74.5T22 691v13h275v-13q-22 0-33.5-10t-8-37 30.5-69l105-165 51 76q54 98 62 130 15 74-76 75v13h278v-13q-24 0-36.5-1.5t-37-12-46.5-32-56.5-64T453 476l-53-79z"/><glyph glyph-name="Y" unicode="Y" horiz-adv-x="692" d="M421 704h257v-13q-22 0-36-4t-40-22.5-58.5-67T472 471l-76-157V112q0-56 19.5-77.5T471 13V0H227v13q36 0 55.5 21.5T302 112v176L114 614q-21 36-41 53.5T42 688t-33 4v12h257v-12q-13 0-20-.5t-19-6.5-14-16.5 4.5-33.5 25.5-56l147-249 76 156q101 205-45 205v13z"/><glyph glyph-name="Z" unicode="Z" horiz-adv-x="550" d="M159 13h23q151 0 221 54.5T494 233h17L486 0H24l380 691h-49q-142 0-209-41.5T58 502H40l18 202h457z"/><glyph glyph-name="bracketleft" unicode="[" horiz-adv-x="308" d="M113 735h180v-13q-26 0-40-1.5t-32-9-26-26.5-8-49V-57q0-26 8.5-42.5t26-23T254-131t39-2v-13H113v881z"/><glyph glyph-name="backslash" unicode="\" horiz-adv-x="415" d="M324-17L15 733h69L393-17h-69z"/><glyph glyph-name="bracketright" unicode="]" horiz-adv-x="309" d="M11 735h180v-881H11v13q24 0 39 2t32.5 8.5 26 23T117-57v693q0 30-8 49t-26 26.5-32 9-40 1.5v13z"/><glyph glyph-name="asciicircum" unicode="^" horiz-adv-x="564" d="M290 704l180-328h-30L278 582 119 376H89l178 328h23z"/><glyph glyph-name="underscore" unicode="_" horiz-adv-x="560" d="M0-76h560v-46H0v46z"/><glyph glyph-name="grave" unicode="`" horiz-adv-x="326" d="M85 720l177-163h-23L4 695z"/><glyph glyph-name="a" unicode="a" horiz-adv-x="485" d="M297 247q-167-40-167-132 0-28 19-53.5T209 36q62 0 88 62v149zM432 38q23 0 30 26l12-5q-5-25-30.5-46.5T382-9q-3 0-8.5.5T354-4 329 8t-20.5 25.5T297 75q-11-36-50.5-60T155-9q-5 0-12.5.5t-27 6T81 13 53.5 44 41 94q0 25 6 44t23.5 34.5 33 25.5 52 22 62 19 79.5 21v58q0 79-36.5 115t-95.5 9q-18-9-29-18.5t-11.5-14 1.5-6.5q20-3 31-18t8.5-34.5T147 320q-15-12-34-9.5T83 329q-19 25-5 49 20 43 78 74 19 10 42 14.5t36 4.5h14q77 0 108-51.5T387 271V94l2.5-15 6.5-19 13.5-15 22.5-7z"/><glyph glyph-name="b" unicode="b" horiz-adv-x="550" d="M406 213q0 225-139 225-54 0-84.5-35.5T152 308V157q0-75 34.5-114T274 4q57 0 94.5 49.5T406 213zm105 14q0-112-65.5-174T277-9q-87 0-140 50Q105 8 77 1 65-2 65 5v637q0 26-10 38t-41 18v13l138 27V391q21 38 64 59t85 21q97 0 153.5-69T511 227z"/><glyph glyph-name="c" unicode="c" horiz-adv-x="481" d="M437 128l11-5q-11-49-57-90.5T263-9q-88 0-153 66.5T45 230q0 97 66.5 169T288 471q103 0 137-61 14-25 1-49-10-16-29-21.5t-35 4.5q-17 10-22 28.5t5 34.5q11 19 28 21 8 2-7 12-29 18-78 18-15 0-31.5-4.5T218 435t-39-36.5-29-63.5-12-94q0-92 43-140.5T284 46q51-4 94.5 22t58.5 60z"/><glyph glyph-name="d" unicode="d" horiz-adv-x="545" d="M395 138v175q0 69-36 107t-85 38q-57 0-95-48.5T141 251q0-231 138-231 50 0 83 33t33 85zM532 23V10L423-8q-12-2-19 2.5T396 4l-1 6v55q-22-36-64-55T248-9Q150-9 93.5 60T37 237q0 112 65 173t170 61q70 0 123-37v208q0 27-10.5 38.5T344 698v13l137 27V78q0-36 10-45.5t41-9.5z"/><glyph glyph-name="e" unicode="e" horiz-adv-x="491" d="M130 253h234q0 100-35.5 152.5T251 458q-46 0-83.5-57.5T130 253zm292-130l12-5q-11-45-58-86T250-9Q157-9 96.5 59T36 227q0 109 62 176.5T254 471q90 0 143-58.5T450 240H130q5-183 143-197 45-5 90.5 19t58.5 61z"/><glyph glyph-name="f" unicode="f" horiz-adv-x="301" d="M337 651q-7-19-26-26.5t-37 .5q-19 8-26.5 26t.5 37q8 21 26 24 9 3-3 11-13 8-32 8-39 0-56.5-56T165 462h112l-3-13H165V85q0-38 10-53t38-20V0H38v12q27 6 33 19.5T77 85v364H13l-1 13h65q0 160 36.5 221T238 744q31 0 56.5-12.5T330 706q19-26 7-55z"/><glyph glyph-name="g" unicode="g" horiz-adv-x="542" d="M353 318q0 76-30.5 108T252 458q-100 0-100-140 0-76 30-108.5t70-32.5q42 0 71.5 32.5T353 318zm170 81q-15-12-34-10.5T459 405q-13 17-9 33 1 3-3 4-17 2-37-17-4-4-7-9 37-37 37-98 0-63-51.5-108.5T252 164q-55 0-95 17-14-2-27.5-14.5T110 138t-4-31.5 20.5-26T178 70h120q91 0 126-18 57-29 46-109 0-3-1-8.5T462-88t-16.5-32.5-32.5-36-51-37.5q-104-56-203.5-50T27-180Q3-127 25-79t75 78Q55 21 55 76v9l4.5 22 13 29.5 27 28L144 187q-38 17-58.5 53T65 318q0 63 51.5 108T252 471q89 0 142-47 33 49 90 56 30 2 46-17 11-15 9-33.5T523 399zM94-156q37-44 114.5-55T355-183q35 21 52.5 49T426-89v17q0 2-1 5.5T419-54t-14 15.5-27 12-42 5.5H198q-52 0-85 13-75-50-33-127 9-16 14-21z"/><glyph glyph-name="h" unicode="h" horiz-adv-x="507" d="M488 12V0H321v12q27 8 33.5 23.5T361 93v213q0 114-104 114-34 0-61-24.5T154 340V93q0-43 7.5-58T195 13V0H26v13q27 8 33.5 23T66 93v548q0 27-10 38t-40 16v13l138 30V358q11 43 59 78t96 35q138 0 138-161V93q0-42 7.5-58T488 12z"/><glyph glyph-name="i" unicode="i" horiz-adv-x="245" d="M113 554q-22 0-36.5 15T62 605q0 22 14.5 36.5T113 656q21 0 36-14.5t15-36.5q0-21-15-36t-36-15zm94-541V0H39v13q27 8 33.5 23T79 93v277q0 27-9.5 39.5T29 430v12l137 29V93q0-43 7.5-58T207 13z"/><glyph glyph-name="j" unicode="j" horiz-adv-x="241" d="M113 554q-21 0-36 15t-15 36q0 22 15 37t36 15 36-15 15-37q0-21-15-36t-36-15zM79 27v339q0 28-10 42t-40 22v12l137 29V50q0-133-43-195T-2-228v12q81 25 81 243z"/><glyph glyph-name="k" unicode="k" horiz-adv-x="511" d="M499 13V0h-89q-50 0-77 20.5T250 118l-76 97 94 97 10.5 10.5 22.5 25 24.5 34.5 12.5 32-10 25.5-45 9.5v13h225v-13q-21 0-39-5t-49-22-75-57.5T243 261q33-47 76-99t69-80l27-29q32-40 84-40zm-311 0V0H19v13q27 8 33.5 23T59 92v549q0 27-10 39T9 698v13l138 27V92q0-42 7.5-57T188 13z"/><glyph glyph-name="l" unicode="l" horiz-adv-x="230" d="M201 13V0H33v13q27 8 33.5 23T73 92v549q0 27-10 39t-40 18v13l138 27V92q0-42 7-57t33-22z"/><glyph glyph-name="m" unicode="m" horiz-adv-x="747" d="M730 12V0H562v12q27 8 33.5 23.5T602 93v215q0 113-91 113-36 0-64-29t-28-59V93q0-43 7.5-58.5T460 12V0H292v12q27 8 33.5 23.5T332 93v215q0 113-91 113-34 0-61-28t-33-58V92q0-42 7.5-57T188 13V0H20v13q27 8 33 22.5T59 92v275q0 28-10 41.5T9 430v12l138 29V368q17 44 56 73.5t85 29.5q109 0 128-107 14 45 54.5 76t87.5 31q65 0 98-36.5T689 311V93q0-42 7.5-58T730 12z"/><glyph glyph-name="n" unicode="n" horiz-adv-x="506" d="M480 12V0H312v12q27 8 33.5 23.5T352 93v215q0 52-26.5 82.5T250 421q-36 0-65.5-28T148 335V92q0-42 7.5-57T189 13V0H21v13q27 8 33 22.5T60 92v279q0 27-9.5 39T10 430v12l138 29V366q16 43 61 74t92 31q138 0 138-160V93q0-42 7.5-58T480 12z"/><glyph glyph-name="o" unicode="o" horiz-adv-x="542" d="M398 231q0 128-32.5 177.5T271 458q-63 0-96-49.5T142 231t33-177.5T271 4q62 0 94.5 49.5T398 231zm103 0q0-104-60-172T271-9 100.5 59.5 40 231q0 104 60.5 172T271 471t170-68 60-172z"/><glyph glyph-name="p" unicode="p" horiz-adv-x="561" d="M408 213q0 228-139 228-49 0-79.5-32T154 324V136q4-64 38-98t84-34q57 0 94.5 49T408 213zm105 14q0-113-65-174.5T279-9q-74 0-125 38v-205q0-42 7.5-55.5T195-252v-13H27v13q27 8 33.5 21.5T67-176v553q0 26-10 36.5T17 430v12l137 29v-78q22 37 64.5 57.5T303 471q97 0 153.5-68.5T513 227z"/><glyph glyph-name="q" unicode="q" horiz-adv-x="550" d="M392 127v193q-2 67-35 102.5T277 458q-58 0-95-48t-37-159q0-236 136-236 48 0 78.5 31t32.5 81zm129-379v-13H353v13q27 8 33 21.5t6 53.5V50q-23-28-61.5-43.5T256-9q-97 0-153.5 69.5T46 237q0 113 65 173.5T280 471q77 0 129-41 25 28 57 35 14 3 14-5v-637q0-42 7-55t34-20z"/><glyph glyph-name="r" unicode="r" horiz-adv-x="364" d="M286 468q37 4 57-19 15-18 13-40.5T336 371q-17-14-39.5-12.5T258 378q-15 19-11 38 1 5-5 5-21 2-53-28-24-23-37-51V93q0-43 7.5-58T193 13V0H24v13q27 8 33.5 23T64 93v277q0 27-10 39.5T14 430v12l138 29V366q26 47 63 72.5t71 29.5z"/><glyph glyph-name="s" unicode="s" horiz-adv-x="417" d="M350 40q-4-5-12-13.5t-41-22T223-9q-54 0-97.5 10T65 21L48 31v136h13Q78 4 223 4q50 0 68 28.5t2.5 65.5-53.5 62l-101 61q-71 48-90 95t12 98q1 2 3.5 6T78 434t24.5 17.5T140 465t53 6q51 0 92-8t56-16l15-8V317h-12q-17 141-151 141-46 0-65.5-25.5t-5.5-61 56-62.5l101-63q68-42 87.5-98T350 40z"/><glyph glyph-name="t" unicode="t" horiz-adv-x="316" d="M294 82l10-5q-11-35-43.5-60.5T187-9q-59 0-88 33.5T70 144v305H19l-2 13h53v142l87 14V462h119l-3-13H157V147q0-107 76-107 21 0 38 12.5T294 82z"/><glyph glyph-name="u" unicode="u" horiz-adv-x="522" d="M504 24V11L390-8q-11-2-17 1.5T366 2v90q-14-41-57.5-71T216-9Q73-9 73 142v225q0 50-7 60t-49 13v12l142 19V145q0-54 28-79.5T262 40q36 0 62.5 21.5T366 117v252q0 48-6 58.5T319 440v12l134 19V83q0-35 9.5-45T504 24z"/><glyph glyph-name="v" unicode="v" horiz-adv-x="514" d="M321 462h193v-13q-18 0-28-2.5T460 433t-32-38.5-35-73.5L269-9h-10L69 399q-11 23-26.5 35T20 447t-21 2v13h208v-13q-30 0-37.5-17.5T169 397l7-17 124-271 77 207q2 5 5 14t6 32 0 40.5-19.5 32T321 449v13z"/><glyph glyph-name="w" unicode="w" horiz-adv-x="749" d="M564 462h177v-13q-12 0-21.5-3T695 432.5 665 395t-30-69L519-9h-10L376 300 267-9h-11L81 397q-22 49-65 52v13h192v-13q-25 0-32-15t-2-30l6-15 117-275 71 203-34 80q-23 49-61 52v13h192v-13q-28 0-36-15.5t-2-31.5l6-15 116-273 73 217q2 5 4 13t4 28-2 35.5-20 28.5-44 13v13z"/><glyph glyph-name="x" unicode="x" horiz-adv-x="518" d="M419 64q33-48 92-51V0H309v13q18 0 21.5 11t-2 24T316 72l-7 11-74 109-36-52q-14-21-21-33t-15.5-29-8.5-27 4-19.5 19-14 39-4.5V0H13v13q14 0 20.5.5t25 7T93 40t41.5 41 54.5 69l38 53L92 401q-26 32-41.5 40T12 450v12h203v-12q-14 0-22-5.5t-6-22 20-42.5l70-103 32 45q42 66 42 90 1 38-63 38v12h213v-12q-21-1-30.5-2.5t-34-12.5-53.5-42-65-81l-34-47z"/><glyph glyph-name="y" unicode="y" horiz-adv-x="532" d="M320 462h193v-12q-21 0-36-7.5T437.5 398 385 290L230-133q-20-58-61-93-11-9-28-11t-32 4q-20 9-27.5 29.5T82-163q10 20 30 28t40-1q20-8 27-32 4-14 20 3 11 12 19 34L263-4 76 399q-21 48-70 51v12h207v-12q-29 0-36.5-18t-.5-36l7-19 124-266 66 182q3 6 6.5 17t8 38 2 48-20 37.5T320 450v12z"/><glyph glyph-name="z" unicode="z" horiz-adv-x="432" d="M389 462L141 12q109 0 161 35t63 105h13L369 0H29l259 449q-107 0-163.5-26T57 330H44l5 132h340z"/><glyph glyph-name="braceleft" unicode="{" horiz-adv-x="313" d="M268-154l-1-10Q128-145 128 3v117q0 24-1 43.5t-4.5 34-6 25.5-8.5 18.5-9.5 12.5-12 8.5-12 4.5-13 3.5T49 274v11q1 0 14 4t15 5 12.5 7 13 12.5 9.5 19 8.5 28 4 38.5 2.5 52v117q0 148 139 167l1-10q-70-26-70-157V424q0-74-35-109t-77-35q44 0 78-30t34-103V3q0-133 70-157z"/><glyph glyph-name="bar" unicode="|" horiz-adv-x="202" d="M73-164v899h58v-899H73z"/><glyph glyph-name="braceright" unicode="}" horiz-adv-x="319" d="M49-164l-1 10q70 24 70 157v144q0 73 34 103t78 30q-42 0-77 35t-35 109v144q0 131-70 157l1 10q139-19 139-167V451q0-29 2.5-52t4-38.5 8.5-28 9.5-19 13-12.5 12.5-7 15-5 14-4v-11q-3-1-12.5-3.5t-13-3.5-12-4.5-12-8.5-9.5-12.5-8.5-18.5-6-25.5-4.5-34-1-43.5V3q0-148-139-167z"/><glyph glyph-name="asciitilde" unicode="~" horiz-adv-x="578" d="M337 212l-115 43q-20 5-47.5 7t-59-11.5T72 210l-10 4q17 43 42.5 69.5T154 318t46 9.5 35-1.5l13-4 115-43q19-5 47-6t59 13 42 39l10-4q-17-43-42.5-70t-49-35-45-9.5T350 208z"/><glyph glyph-name="uni007F" horiz-adv-x="0"/><glyph glyph-name="uni00A0" horiz-adv-x="250"/><glyph glyph-name="exclamdown" unicode="¡" horiz-adv-x="286" d="M122 373h47l22-548H99zm24 196q25 0 42-17t17-41q0-25-17-41.5T146 453q-24 0-41 16.5T88 511q0 24 17 41t41 17z"/><glyph glyph-name="cent" unicode="¢" horiz-adv-x="504" d="M168 242q0-87 37.5-134.5T299 48v409q-21-3-41-14.5T216 408t-35-66-13-100zm299-114l11-5q-11-45-50.5-85.5T318-9v-109h-19V-9q-99 2-161.5 67.5T75 231q0 93 61 163.5T299 471v122h19V471q103 0 137-60 15-26 1-49-10-16-29-21.5t-35 3.5q-17 10-22 29t5 35 28 21q8 0-5 9-28 20-80 20V46q51-3 93 23t56 59z"/><glyph glyph-name="sterling" unicode="£" horiz-adv-x="645" d="M288 86q-58 40-95 55-50 20-84 9.5t-50.5-35T48 67Q65 4 139 4q105 0 149 82zm-40 84q39-15 52-25 5 57-45 133-7 11-16 25t-20.5 32-17.5 27h-96v14h90q-35 71-44 132.5t5.5 103.5 43 73 66 44.5T343 743t75-15q65-29 83-87 10-31-17-57-17-15-40-14t-39 18q-16 18-14.5 41t18.5 39q14 14 39 12 11-1 0 13-12 16-35 23-32 10-61.5 11t-53.5-8.5-41-28-23.5-49T231 573t23.5-88.5T308 376h178v-14H317l31-45q59-93 10-195 15-10 38-21t39-17l16-6q45-17 87.5-2t46.5 54l14-2q0-37-13.5-65.5T552 20 517-.5 491-8q-35-3-74 16t-98 59Q264-9 140-9q-7 0-18 2T92.5 1.5t-34 23T35 65q-6 12-2 28.5T43.5 128 68 160t40.5 22.5 59.5 6 80-18.5z"/><glyph glyph-name="currency" unicode="¤" horiz-adv-x="573" d="M156 465q-50-50-50-120t50-120q52-50 120-50 70 0 120 50t50 120q0 68-50 120-48 50-120 50-70 0-120-50zm302-260l76-76-41-42-76 76q-60-48-141-48-79 0-141 48L60 87l-42 42 76 76q-48 60-48 140 0 81 48 141l-76 76 42 41 75-75q62 48 141 48 81 0 141-48l76 75 41-41-76-76q48-60 48-141 0-80-48-140z"/><glyph glyph-name="yen" unicode="¥" horiz-adv-x="620" d="M387 691v13h257v-13q-22 0-36-4t-40-22.5-58.5-66.5T438 472l-74-153h170v-15H362v-68h172v-15H362V112q0-56 19.5-77.5T437 13V0H193v13q36 0 55.5 21.5T268 112v109H76v15h192v51l-10 17H76v15h174L80 613q-21 36-41 54T8 688t-33 4v12h257v-12q-13 0-20.5-.5t-19-6.5-13.5-17 4.5-34 25.5-56l146-247 76 154q102 206-44 206z"/><glyph glyph-name="brokenbar" unicode="¦" horiz-adv-x="200" d="M130 735V359H71v376h59zm0-550v-377H71v377h59z"/><glyph glyph-name="section" unicode="§" horiz-adv-x="532" d="M188 404q-43-28-63-57.5t-20-54 14-50 34-44 46-36.5q22-15 68-45t51-34q20-13 35-25 170 117-16 244-23 16-70 47t-53 36q-23 16-26 19zM364 48q82-74 71-164-6-49-31-81t-56-42-64-15-54 0q-37 3-68.5 23.5T119-188q-13 28 4 52 11 17 31.5 20.5T192-123q17-12 21-32.5t-8-37.5q-13-15-34-19-10-3 13-15 21-11 44-14 53-6 93.5 18t46.5 74q5 43-12 74T286-6L159 80q-45 31-71.5 69.5T56 232t25 92 95 90q-42 37-59.5 75.5T105 580q17 151 200 139 37-3 68.5-23.5T416 652q13-29-2-52-12-17-32.5-20.5T343 588q-17 12-20.5 32t8.5 37q13 18 29 18 9 1-6 13-17 14-43 17-60 5-100.5-18T164 613q-5-41 13.5-73t72.5-71l127-85q45-30 72-69.5t32.5-84-23.5-93T364 48z"/><glyph glyph-name="dieresis" unicode="¨" horiz-adv-x="234" d="M151 646q0 20 13.5 33.5T197 693t33-14 14-33-14-32.5-33-13.5-32.5 13-13.5 33zm-160 0q0 19 13.5 33T37 693t33-13.5T84 646q0-19-13.5-32.5T37 600q-19 0-32.5 13.5T-9 646z"/><glyph glyph-name="copyright" unicode="©" horiz-adv-x="797" d="M519 275h11l5-85q-31-21-59.5-28t-74.5-7q-88 0-142 55t-54 148q0 94 53.5 148.5T401 561q93 0 134-34l-5-86h-11q-9 107-118 107-18 0-33-3t-32.5-15-29.5-31.5-20-55.5-8-85q0-190 123-190 109 0 118 107zM398 51q130 0 223 93t93 224-93 224.5T398 686t-223.5-93.5T81 368t93-224 224-93zm0 684q152 0 260-107.5T766 368 658 108.5 398 1Q245 1 137.5 108.5T30 368t107.5 259.5T398 735z"/><glyph glyph-name="ordfeminine" unicode="ª" horiz-adv-x="297" d="M154 582q-88-20-88-65 0-14 10-27t32-13q19 0 32.5 16t13.5 30v59zm84-91l11-4q-2-13-16-23.5T199 453q-5 0-12.5 1t-20 11-12.5 27q-4-18-25-28.5T80 453h-6.5L59 456l-18 8-14.5 16-6.5 26q0 37 28.5 53T154 595v29q0 41-19.5 58T84 685q-20-11-20-17 10 0 17-9 12-19-6-34-7-6-17-4.5T42 630q-9 10-3 25 11 24 40 39 9 4 21.5 6.5T121 704h8q40 0 56-27t16-78v-89q0-4 .5-9.5t6.5-14 16-8.5q11-1 14 13z"/><glyph glyph-name="guillemotleft" unicode="«" horiz-adv-x="610" d="M522 505v-26L374 266 522 59V33L291 266zm-204 0v-26L169 266 318 59V33L87 266z"/><glyph glyph-name="logicalnot" unicode="¬" horiz-adv-x="644" d="M41 393h555V84h-62v248H41v61z"/><glyph glyph-name="uni00AD" unicode="­" horiz-adv-x="444" d="M379 220H64v68h315v-68z"/><glyph glyph-name="registered" unicode="®" horiz-adv-x="800" d="M361 362q21 0 30 .5t25 3 23 8 16 16 12 27.5 3 40q0 26-6.5 44T449 528.5t-25 14-28.5 5-34.5.5h-17V362h17zm169-132q8-42 59-42v-13h-64.5l-15.5 2-11.5 3-8 6.5-7 9.5-5.5 15.5-6 20-7 28-9 35.5q-6 24-27.5 37.5T388 348l-18 1h-26V238q0-50 35-50v-13H257v13q19 0 26.5 12t7.5 45v265q0 25-7 31.5t-27 6.5v13h104q90 0 129.5-20t39.5-84q0-95-97-102 13 0 25-3.5t26.5-15.5 26.5-39 19-67zM399 735q152 0 260-107.5T767 368 659 108.5 399 1Q246 1 138.5 108.5T31 368t107.5 259.5T399 735zm0-683q130 0 223 93t93 223q0 131-93 224t-223 93q-131 0-224-93T82 368t93-223.5T399 52z"/><glyph glyph-name="macron" unicode="¯" horiz-adv-x="360" d="M377 597H-16v51h393v-51z"/><glyph glyph-name="degree" unicode="°" horiz-adv-x="381" d="M89 607q0-40 29-68.5t70-28.5q40 0 68.5 28.5T285 607t-28.5 68.5T188 704q-41 0-70-28.5T89 607zm-32 0q0 54 38.5 92t91.5 38 91.5-38 38.5-92q0-53-38.5-91T187 478t-91.5 38T57 607z"/><glyph glyph-name="plusminus" unicode="±" horiz-adv-x="608" d="M331 368h229v-62H331V140h-62v166H41v62h228v167h62V368zM41 0v61h519V0H41z"/><glyph glyph-name="twosuperior" unicode="²" horiz-adv-x="259" d="M201 445h13l-18-66H30l101 152q50 75 14 117-23 27-60 17-35-9-42-47l-13 1q1 25 10.5 42.5t22 25.5T87 699.5t21 4.5h8q34 0 56.5-22t22.5-53q0-36-52-104L72 420h89q25 0 40 25z"/><glyph glyph-name="threesuperior" unicode="³" horiz-adv-x="263" d="M223 474q1-53-32.5-77T117 373q-49 0-76 27-13 11-5 26 4 10 13 14.5t19 .5 14.5-13.5.5-19.5q-5-10-12-12-4-1 4-5 14-6 42-6 33 0 50 20.5t13 57.5q-7 67-86 72v13q33 5 50.5 26t15 45.5T137 661q-22 19-52 8.5T49 629l-14 1q1 21 10.5 36t20 22T90 699t20 4.5 11 .5q36 0 59.5-27.5t17-64T151 553q34-8 52.5-30t19.5-49z"/><glyph glyph-name="acute" unicode="´" horiz-adv-x="349" d="M87 557l177 163 81-25-235-138H87z"/><glyph glyph-name="mu" unicode="µ" horiz-adv-x="518" d="M498 24V11L384-8q-11-2-17 1.5T360 2v90q-15-56-79.5-87T153 6v-175q0-36 10-48t42-15v-13L92-264q-12-2-18 1.5t-6 8.5l-1 5v616q0 50-7 60t-49 13v12l142 19V138q2-50 30-74t73-24q36 0 62.5 21.5T360 117v252q0 48-6 58.5T313 440v12l134 19V83q0-35 9.5-45T498 24z"/><glyph glyph-name="paragraph" unicode="¶" horiz-adv-x="624" d="M465 574v-700q0-59 19.5-92.5T540-252v-13H406v969h141v-13q-37 0-59.5-32T465 574zM287 704h58v-969H172v13q46 0 80 23.5t34 83.5v445q-56 0-97.5 8.5t-78 29T55 399 36 500q0 202 250 204h1z"/><glyph glyph-name="periodcentered" unicode="·" horiz-adv-x="252" d="M125 253q-19 0-33 13.5T78 299t14 33 33 14 33-14 14-33-14-32.5-33-13.5z"/><glyph glyph-name="cedilla" unicode="¸" horiz-adv-x="266" d="M111-4h13l-22-63q65 15 99-12t28-70q-4-32-23.5-51T167-224t-40-5q-44 0-66 22-10 11-5 25 9 22 31 13 10-3 14.5-11.5t.5-18.5q-2-7-10-11-1-1 1.5-3t11.5-4.5 22-2.5q26 0 43 16t16 44q0 29-25 55T81-91z"/><glyph glyph-name="onesuperior" unicode="¹" horiz-adv-x="209" d="M131 430q0-16 6-25t12.5-10.5T167 393v-13H50v13q12 0 19 2t13.5 10.5T89 430v199q0 36-39 7l-8 12 73 57h16V430z"/><glyph glyph-name="ordmasculine" unicode="º" horiz-adv-x="326" d="M162 386q35 0 55.5 31.5T238 537q0 157-76 157-35 0-56-33.5T85 537q0-88 21-119.5t56-31.5zm0 321q127 0 127-170 0-164-127-164-128 0-128 164 0 170 128 170z"/><glyph glyph-name="guillemotright" unicode="»" horiz-adv-x="609" d="M83 479v26l231-239L83 33v26l148 207zm204 0v26l231-239L287 33v26l149 207z"/><glyph glyph-name="onequarter" unicode="¼" horiz-adv-x="624" d="M14 36l556 673h50L63 36H14zm124 628q0 38-43 5l-8 12 78 65h17V428q0-19 7-28t13.5-10.5T221 388v-13H96v13q13 0 20.5 2t14.5 11 7 27v236zm314-531v162l-94-140q-8-17-6-19.5t14-2.5h86zm52 232V133h50v-27h-50V68q0-25 6-38t12.5-15 20.5-2V0H414v13q13 0 20 2.5T446.5 30t5.5 36v40H313v8l170 252z"/><glyph glyph-name="onehalf" unicode="½" horiz-adv-x="642" d="M589 76h11L579 0H390l115 174q55 83 18 130-24 32-66 24-42-7-53-51l-1-5-12 3q1 28 11.5 48.5T427 353t28 14 23 5l10 1q39 0 64.5-25.5T578 286q0-24-13.5-49.5T517 167L436 47h103q34 0 50 29zM138 664q0 39-43 6l-8 11 78 65h17V428q0-19 7-28t13.5-10.5T221 388v-13H96v13q13 0 20.5 2t14.5 11 7 27v236zM14 36l556 673h50L63 36H14z"/><glyph glyph-name="threequarters" unicode="¾" horiz-adv-x="641" d="M452 133v162l-94-140q-8-17-6-19.5t14-2.5h86zm102-27h-50V68q0-25 6-38t12.5-15 20.5-2V0H414v13q13 0 20 2.5T446.5 30t5.5 36v40H313v8l170 252 21-1V133h50v-27zM264 487q0-62-37.5-88T144 373q-57 0-86 29-12 11-6 30 4 11 15 16t22 1q26-12 17-38-6-11-11-12-2-1 1.5-4t16-6 31.5-3q80 0 71 89-3 31-25 56t-73 28v11q38 6 58 30t17 51.5-25 45.5q-25 21-59 9t-41-46l-14 3q1 23 11.5 40T87 728t27.5 12.5 22 5 11.5.5q41 0 67.5-31t19.5-72.5-53-66.5q38-8 59-33.5t23-55.5zM14 36l556 673h50L63 36H14z"/><glyph glyph-name="questiondown" unicode="¿" horiz-adv-x="588" d="M260 409q0 27 18.5 45.5T324 473q26 0 44.5-18.5T387 409q0-26-18.5-44.5T324 346q-27 0-45.5 18.5T260 409zm-7-273q38 15 55.5 49t13.5 80l20 3q16-101-52-157-21-19-33.5-32t-27-37-20-56-1.5-74q5-55 28-90.5t55-48.5 67-12.5 68 13.5q36 14 33 35-2 9-9 10-19 1-32 21-13 18-9 39.5T430-86q18 12 39.5 7.5T504-101q14-19 6-54-5-19-26-43.5T431-237q-83-33-155-26.5T154-210 101-92Q99-41 113.5.5t41 68T204 110t49 26z"/><glyph glyph-name="Agrave" unicode="À" d="M427 226H175l121 332zM673 13q-15 1-21 2.5T634.5 24 613 48t-22 46Q467 411 345 704h-11L167 249Q126 139 97 85.5T54 23 17 13V0h223v13q-29-1-49 6t-30.5 17-14 29.5T143 99t6.5 39.5 10 37.5 12.5 37h259l35-87q46-113-21-113V0h228v13zM285 897l177-163h-23L204 872z"/><glyph glyph-name="Aacute" unicode="Á" d="M175 226h252L296 558zM673 13V0H445v13q67 0 21 113l-35 87H172q-9-25-12.5-37t-10-37.5T143 99t3.5-33.5 14-29.5T191 19t49-6V0H17v13q23 1 37 10t43 62.5T167 249l167 455h11q54-131 115.5-283.5T556 181l35-87q12-29 22-46t21.5-24 17.5-8.5 21-2.5zM220 734l177 163 81-25-235-138h-23z"/><glyph glyph-name="Acircumflex" unicode="Â" d="M427 226H175l121 332zM673 13q-15 1-21 2.5T634.5 24 613 48t-22 46Q467 411 345 704h-11L167 249Q126 139 97 85.5T54 23 17 13V0h223v13q-29-1-49 6t-30.5 17-14 29.5T143 99t6.5 39.5 10 37.5 12.5 37h259l35-87q46-113-21-113V0h228v13zM460 735L341 837 222 735h-23l142 188 143-188h-24z"/><glyph glyph-name="Atilde" unicode="Ã" d="M385 767l-114 43q-20 5-47.5 6.5t-58.5-12-43-40.5l-9 4q17 43 42 70t48.5 35 45 10 34.5-1l13-4 115-44q20-5 48-5.5t58.5 13.5 42.5 39l9-4q-17-43-42.5-70.5t-49-35.5-45-9.5T398 764zM175 226h252L296 558zM673 13V0H445v13q67 0 21 113l-35 87H172q-9-25-12.5-37t-10-37.5T143 99t3.5-33.5 14-29.5T191 19t49-6V0H17v13q23 1 37 10t43 62.5T167 249l167 455h11q54-131 115.5-283.5T556 181l35-87q12-29 22-46t21.5-24 17.5-8.5 21-2.5z"/><glyph glyph-name="Adieresis" unicode="Ä" d="M374 827q0 19 13.5 33t32.5 14q20 0 33.5-14t13.5-33-14-32.5-33-13.5-32.5 13.5T374 827zm-159 0q0 20 13.5 33.5T261 874t32.5-14 13.5-33-13.5-32.5T261 781t-32.5 13.5T215 827zm-40-601h252L296 558zM673 13V0H445v13q67 0 21 113l-35 87H172q-9-25-12.5-37t-10-37.5T143 99t3.5-33.5 14-29.5T191 19t49-6V0H17v13q23 1 37 10t43 62.5T167 249l167 455h11q54-131 115.5-283.5T556 181l35-87q12-29 22-46t21.5-24 17.5-8.5 21-2.5z"/><glyph glyph-name="Aring" unicode="Å" d="M276 879q0-26 19-45t46-19 45.5 19 18.5 45q0 27-18.5 46T341 944t-46-19-19-46zm-34 0q0 41 29 70.5t70 29.5 70-29.5 29-70.5q0-40-29-69t-70-29-70 28.5-29 69.5zm-67-653h252L296 558zM673 13V0H445v13q67 0 21 113l-35 87H172q-9-25-12.5-37t-10-37.5T143 99t3.5-33.5 14-29.5T191 19t49-6V0H17v13q23 1 37 10t43 62.5T167 249l167 455h11q54-131 115.5-283.5T556 181l35-87q12-29 22-46t21.5-24 17.5-8.5 21-2.5z"/><glyph glyph-name="AE" unicode="Æ" horiz-adv-x="939" d="M231 249h219v349q0 33-2 40zm636-42h13V0H388v13q33 0 47.5 21t14.5 83v119H225q-31-57-47-98t-18-65 8.5-37.5 27-18T238 13V0H9v13q23 1 44 14t64.5 70.5T222 263l221 396q-5 14-15.5 21.5t-20.5 9-27 1.5v13h486V524h-13q-3 40-16.5 70T799 641.5 752.5 670 697 685t-51.5 5-47.5 1h-44V361h55q123 0 128 101h13V248h-13q-5 100-128 100h-55V13h36q30 0 43 .5t46 3.5 51.5 9.5 46 21 43 34.5 29.5 52 18 73z"/><glyph glyph-name="Ccedilla" unicode="Ç" horiz-adv-x="671" d="M603 207h13l12-154Q574 17 521.5 4T387-9h-16l-19-54q65 15 99-12t28-70q-4-32-23.5-51T417-220t-40-5q-44 0-66 22-10 11-5 25 9 22 31 13 10-3 14.5-11.5t.5-18.5q-2-7-10-11-1-1 1.5-3t11.5-4.5 22-2.5q26 0 43 16t16 44q0 29-25 55t-80 14l27 79Q213 1 126.5 97.5T40 352q0 167 95 264t252 97q85 0 141-12.5T628 652l-12-155h-13q-10 59-33.5 101t-55 63-62.5 30-65 9q-35 0-63-7t-58.5-29-51-59T181 503.5 168 352q0-88 13.5-153.5t34-102 51-58 58.5-28T387 4q33 0 66.5 11T520 48t55.5 63.5T603 207z"/><glyph glyph-name="Egrave" unicode="È" horiz-adv-x="596" d="M534 208h-13q-4-41-18.5-73.5t-31-52.5T426 47.5t-47.5-21-53.5-10-47.5-3.5H188v336h65q17 0 32.5-2t42.5-10.5 44-31 19-57.5h13v215h-13q-5-101-138-101h-65v329h54q28 0 47.5-1t54-5.5T402 669t49-28.5 39.5-47.5 17.5-69h13v180H31v-13q31 0 42.5-22T85 597V117q0-54-12-79T31 13V0h503v208zM239 897l177-163h-23L158 872z"/><glyph glyph-name="Eacute" unicode="É" horiz-adv-x="596" d="M521 208h13V0H31v13q30 0 42 25t12 79v480q0 50-11.5 72T31 691v13h490V524h-13q-3 39-17.5 69T451 640.5 402 669t-58.5 15.5-54 5.5-47.5 1h-54V362h65q133 0 138 101h13V248h-13q-2 35-19 57.5t-44 31-42.5 10.5-32.5 2h-65V13h89.5l47.5 3.5 53.5 10 47.5 21L471.5 82l31 52.5L521 208zM153 734l177 163 81-25-235-138h-23z"/><glyph glyph-name="Ecircumflex" unicode="Ê" horiz-adv-x="596" d="M534 208h-13q-4-41-18.5-73.5t-31-52.5T426 47.5t-47.5-21-53.5-10-47.5-3.5H188v336h65q17 0 32.5-2t42.5-10.5 44-31 19-57.5h13v215h-13q-5-101-138-101h-65v329h54q28 0 47.5-1t54-5.5T402 669t49-28.5 39.5-47.5 17.5-69h13v180H31v-13q31 0 42.5-22T85 597V117q0-54-12-79T31 13V0h503v208zM403 735L284 837 165 735h-23l142 188 143-188h-24z"/><glyph glyph-name="Edieresis" unicode="Ë" horiz-adv-x="596" d="M317 827q0 19 13.5 33t32.5 14 33-14 14-33-14-32.5-33-13.5-32.5 13.5T317 827zm-159 0q0 20 13.5 33.5T204 874t32.5-14 13.5-33-13.5-32.5T204 781t-32.5 13.5T158 827zm363-619h13V0H31v13q30 0 42 25t12 79v480q0 50-11.5 72T31 691v13h490V524h-13q-3 39-17.5 69T451 640.5 402 669t-58.5 15.5-54 5.5-47.5 1h-54V362h65q133 0 138 101h13V248h-13q-2 35-19 57.5t-44 31-42.5 10.5-32.5 2h-65V13h89.5l47.5 3.5 53.5 10 47.5 21L471.5 82l31 52.5L521 208z"/><glyph glyph-name="Igrave" unicode="Ì" horiz-adv-x="344" d="M295 704H52v-13q35 0 52.5-17.5T122 612V107q0-94-70-94V0h243v13q-70 0-70 94v505q0 44 17.5 61.5T295 691v13zM119 897l177-163h-23L38 872z"/><glyph glyph-name="Iacute" unicode="Í" horiz-adv-x="344" d="M52 704h243v-13q-35 0-52.5-17.5T225 612V107q0-94 70-94V0H52v13q70 0 70 94v505q0 44-17.5 61.5T52 691v13zm-10 30l177 163 81-25L65 734H42z"/><glyph glyph-name="Icircumflex" unicode="Î" horiz-adv-x="344" d="M295 704H52v-13q35 0 52.5-17.5T122 612V107q0-94-70-94V0h243v13q-70 0-70 94v505q0 44 17.5 61.5T295 691v13zm-2 31L174 837 55 735H32l142 188 143-188h-24z"/><glyph glyph-name="Idieresis" unicode="Ï" horiz-adv-x="344" d="M254 781q-19 0-32.5 13.5T208 827q0 20 13.5 33.5T254 874t33-14 14-33-14-32.5-33-13.5zm-113 46q0-19-14-32.5T94 781t-32.5 13.5T48 827t13.5 33T94 874q20 0 33.5-14t13.5-33zM53 691v13h242v-13q-35 0-52.5-17.5T225 612V107q0-94 70-94V0H53v13q70 0 70 94v505q0 44-17.5 61.5T53 691z"/><glyph glyph-name="Eth" unicode="Ð" horiz-adv-x="711" d="M536 350q0 67-10 120.5T500.5 559 461 619.5t-46.5 39-53 21-52 9.5-50.5 2h-44V361h143v-19H215V13h44q31 0 50 1t51.5 8T414 41t46.5 37 40 60 25 89T536 350zm120 0q0-87-23-152T574 96t-90-59.5T377.5 7 259 0H44v13q32 0 50 27.5t18 78.5v223H20v19h92v225q0 48-18 76.5T44 691v13h215q65 0 118.5-8.5t107-32 90-62 59-102.5T656 350z"/><glyph glyph-name="Ntilde" unicode="Ñ" horiz-adv-x="807" d="M443 767l-115 43q-20 5-47.5 6.5t-58.5-12-43-40.5l-9 4q17 43 42 70t49 35 45.5 10 34.5-1l13-4 114-44q20-5 48-5.5t59 13.5 42 39l10-4q-17-43-42.5-70.5t-49-35.5-45-9.5T456 764zm53-63h286v-12q-30 0-53.5-9t-38-21-25-35-15.5-38.5-7.5-46.5-2.5-44V0h-32L183 548V250q0-31 .5-49t4-50.5 12-53 22-42 37.5-32T314 13V0H25v13q30 0 53.5 9T117 43.5t26 35 16 40 7.5 46 3 43.5.5 42v313l-41 53q-12 15-23 26.5t-19 19-17.5 13-14 8.5-13.5 5-11.5 2.5-11 1-9.5.5v12h185l432-558v309q0 28-.5 43t-2.5 44-7 46-14.5 39.5-23 34.5-35 21-48.5 9v12z"/><glyph glyph-name="Ograve" unicode="Ò" horiz-adv-x="738" d="M575 347q0-100-15.5-169t-45-106T449 19.5 366 4q-48 0-83.5 15.5T217 72t-45.5 106T156 347t15.5 170.5 45 109.5 66 56 83.5 17q98 0 153.5-80.5T575 347zm116 0q0 158-84 262T366 713 125 609 41 347q0-157 83.5-256.5T366-9t241.5 99.5T691 347zM325 897l177-163h-23L244 872z"/><glyph glyph-name="Oacute" unicode="Ó" horiz-adv-x="738" d="M575 347q0 192-55.5 272.5T366 700q-47 0-83.5-17t-66-56-45-109.5T156 347t15.5-169T217 72t65.5-52.5T366 4q47 0 83 15.5T514.5 72t45 106T575 347zm116 0q0-157-83.5-256.5T366-9 124.5 90.5 41 347q0 158 84 262t241 104 241-104 84-262zM246 734l177 163 81-25-235-138h-23z"/><glyph glyph-name="Ocircumflex" unicode="Ô" horiz-adv-x="738" d="M575 347q0-100-15.5-169t-45-106T449 19.5 366 4q-48 0-83.5 15.5T217 72t-45.5 106T156 347t15.5 170.5 45 109.5 66 56 83.5 17q98 0 153.5-80.5T575 347zm116 0q0 158-84 262T366 713 125 609 41 347q0-157 83.5-256.5T366-9t241.5 99.5T691 347zM488 735L369 837 250 735h-23l142 188 143-188h-24z"/><glyph glyph-name="Otilde" unicode="Õ" horiz-adv-x="738" d="M300 810q-20 5-47.5 6.5t-58.5-12-43-40.5l-9 4q17 43 42 70t49 35 45.5 10 34.5-1l13-4 114-44q20-5 48-5.5t59 13.5 42 39l10-4q-17-43-42.5-70.5t-49-35.5-45-9.5T428 764l-13 3zm275-463q0-100-15.5-169t-45-106T449 19.5 366 4q-48 0-83.5 15.5T217 72t-45.5 106T156 347t15.5 170.5 45 109.5 66 56 83.5 17q98 0 153.5-80.5T575 347zm116 0q0 158-84 262T366 713 125 609 41 347q0-157 83.5-256.5T366-9t241.5 99.5T691 347z"/><glyph glyph-name="Odieresis" unicode="Ö" horiz-adv-x="738" d="M401 827q0 20 13.5 33.5T447 874t33-14 14-33-14-32.5-33-13.5-32.5 13.5T401 827zm-160 0q0 19 13.5 33t32.5 14 33-14 14-33-13.5-32.5T287 781q-19 0-32.5 13.5T241 827zm334-480q0 192-55.5 272.5T366 700q-47 0-83.5-17t-66-56-45-109.5T156 347t15.5-169T217 72t65.5-52.5T366 4q47 0 83 15.5T514.5 72t45 106T575 347zm116 0q0-157-83.5-256.5T366-9 124.5 90.5 41 347q0 158 84 262t241 104 241-104 84-262z"/><glyph glyph-name="multiply" unicode="×" horiz-adv-x="600" d="M349 255L541 63l-49-50-192 192L109 13 59 63l192 192L60 444l50 51 190-190 191 190 49-50z"/><glyph glyph-name="Oslash" unicode="Ø" horiz-adv-x="739" d="M367 4q47 0 83 15.5T515.5 72t45 106.5T576 348q0 160-46 249L220 77Q268 4 367 4zM157 348q0-167 52-254l312 523q-50 83-154 83-47 0-83.5-17t-66-56-45-109T157 348zm407 305q63-49 95.5-129T692 348q0-158-83.5-257.5T367-9q-98 0-173 43l-41-69h-21l47 79Q111 90 76.5 169T42 348q0 102 34.5 183T186 662.5 367 713q109 0 182-49l49 81h21z"/><glyph glyph-name="Ugrave" unicode="Ù" horiz-adv-x="716" d="M308 897l177-163h-23L227 872zM322-9q103 0 173 60t70 185v312.5l2.5 36 7 36L588 648l22.5 24 34.5 13 48 6v13H433v-13q28 0 49-6.5t34-21 20.5-28.5 10.5-38.5 4-41.5 1-47V236q0-94-51-147T371 36q-82 0-132 51.5T189 231v372q0 54 20 71t59 17v13H19v-13q35 0 53-19.5T90 604V240q0-118 65-183.5T322-9z"/><glyph glyph-name="Uacute" unicode="Ú" horiz-adv-x="716" d="M322-9Q220-9 155 56.5T90 240v364q0 48-18 67.5T19 691v13h249v-13q-39 0-59-17t-20-71V231q0-92 50-143.5T371 36q79 0 130 53t51 147v272q0 30-1 47t-4 41.5-10.5 38.5-20.5 28.5-34 21-49 6.5v13h260v-13q-27 0-48-6t-34.5-13-22.5-24-13.5-27.5-7-36-2.5-36V236q0-125-70-185T322-9zm-89 743l177 163 81-25-235-138h-23z"/><glyph glyph-name="Ucircumflex" unicode="Û" horiz-adv-x="716" d="M472 735L353 837 234 735h-23l142 188 143-188h-24zM322-9q103 0 173 60t70 185v312.5l2.5 36 7 36L588 648l22.5 24 34.5 13 48 6v13H433v-13q28 0 49-6.5t34-21 20.5-28.5 10.5-38.5 4-41.5 1-47V236q0-94-51-147T371 36q-82 0-132 51.5T189 231v372q0 54 20 71t59 17v13H19v-13q35 0 53-19.5T90 604V240q0-118 65-183.5T322-9z"/><glyph glyph-name="Udieresis" unicode="Ü" horiz-adv-x="716" d="M389 827q0 20 13.5 33.5T435 874t33-14 14-33-14-32.5-33-13.5-32.5 13.5T389 827zm-160 0q0 19 13.5 33t32.5 14 33-14 14-33-13.5-32.5T275 781q-19 0-32.5 13.5T229 827zM322-9Q220-9 155 56.5T90 240v364q0 48-18 67.5T19 691v13h249v-13q-39 0-59-17t-20-71V231q0-92 50-143.5T371 36q79 0 130 53t51 147v272q0 30-1 47t-4 41.5-10.5 38.5-20.5 28.5-34 21-49 6.5v13h260v-13q-27 0-48-6t-34.5-13-22.5-24-13.5-27.5-7-36-2.5-36V236q0-125-70-185T322-9z"/><glyph glyph-name="Yacute" unicode="Ý" horiz-adv-x="692" d="M421 704h257v-12q-22 0-36-4.5T602.5 664 545 596.5 473 470l-77-156V112q0-56 19.5-77.5T471 13V0H227v13q36 0 55.5 21.5T302 112v176L114 614q-21 36-41 54t-31 21-33 4v11h257v-11q-13 0-20.5-.5t-19-6.5-13.5-17 4.5-34 25.5-56l146-247 75 155q11 23 18 40t15.5 43.5 8 45.5-6 37.5-26 28.5-52.5 10v12zm-185 30l177 163 81-25-235-138h-23z"/><glyph glyph-name="Thorn" unicode="Þ" horiz-adv-x="580" d="M209 565V190h18q34 0 51.5.5t45.5 4 43 10.5 33.5 20.5 27.5 33 15.5 49T450 376q0 35-4 62.5t-14.5 47T411 519t-29 22.5-32 13.5-39 7-40 2.5-44 .5h-18zm18-388h-18v-60q0-50 18-77t50-27V0H45v13q32 0 49.5 27t17.5 77v485q0 89-67 89v13h232v-13q-68 0-68-89v-24h18q66 0 111.5-4t90.5-16 71.5-34 42.5-59 16-89-16-88.5-42.5-58T429 196t-90.5-15.5T227 177z"/><glyph glyph-name="germandbls" unicode="ß" horiz-adv-x="584" d="M560 202q0-96-54.5-153.5T336-9q-38 0-63 14.5T240 38q-13 27-1 50 9 16 27 20.5t34-3.5q15-8 20-27t-3-34q-9-16-26-20-9-3 3-11 15-9 42-9 119 0 116 205-1 46-14 82t-33 57.5-46.5 36-50.5 20-48 5.5v12q121 0 121 156 0 46-12.5 78.5t-26 47-36 22-30 8-20.5.5q-44 0-68.5-47T160 593l-2-47V0H28v12q26 8 33 33t7 72v386q0 244 188 244 213 0 213-173 0-43-18.5-76t-44-48.5-45.5-23-31-7.5q31 0 66.5-10.5t74-33 64-68T560 202z"/><glyph glyph-name="agrave" unicode="à" horiz-adv-x="485" d="M297 247q-167-40-167-132 0-28 19-53.5T209 36q62 0 88 62v149zM432 38q23 0 30 26l12-5q-5-25-30.5-46.5T382-9q-3 0-8.5.5T354-4 329 8t-20.5 25.5T297 75q-11-36-50.5-60T155-9q-5 0-12.5.5t-27 6T81 13 53.5 44 41 94q0 25 6 44t23.5 34.5 33 25.5 52 22 62 19 79.5 21v58q0 79-36.5 115t-95.5 9q-18-9-29-18.5t-11.5-14 1.5-6.5q20-3 31-18t8.5-34.5T147 320q-15-12-34-9.5T83 329q-19 25-5 49 20 43 78 74 19 10 42 14.5t36 4.5h14q77 0 108-51.5T387 271V94l2.5-15 6.5-19 13.5-15 22.5-7zM192 703l177-163h-23L111 678z"/><glyph glyph-name="aacute" unicode="á" horiz-adv-x="485" d="M297 247q-167-40-167-132 0-28 19-53.5T209 36q62 0 88 62v149zM432 38q23 0 30 26l12-5q-5-25-30.5-46.5T382-9q-3 0-8.5.5T354-4 329 8t-20.5 25.5T297 75q-11-36-50.5-60T155-9q-5 0-12.5.5t-27 6T81 13 53.5 44 41 94q0 25 6 44t23.5 34.5 33 25.5 52 22 62 19 79.5 21v58q0 79-36.5 115t-95.5 9q-18-9-29-18.5t-11.5-14 1.5-6.5q20-3 31-18t8.5-34.5T147 320q-15-12-34-9.5T83 329q-19 25-5 49 20 43 78 74 19 10 42 14.5t36 4.5h14q77 0 108-51.5T387 271V94l2.5-15 6.5-19 13.5-15 22.5-7zM123 540l177 163 81-25-235-138h-23z"/><glyph glyph-name="acircumflex" unicode="â" horiz-adv-x="485" d="M297 247q-167-40-167-132 0-28 19-53.5T209 36q62 0 88 62v149zM432 38q23 0 30 26l12-5q-5-25-30.5-46.5T382-9q-3 0-8.5.5T354-4 329 8t-20.5 25.5T297 75q-11-36-50.5-60T155-9q-5 0-12.5.5t-27 6T81 13 53.5 44 41 94q0 25 6 44t23.5 34.5 33 25.5 52 22 62 19 79.5 21v58q0 79-36.5 115t-95.5 9q-18-9-29-18.5t-11.5-14 1.5-6.5q20-3 31-18t8.5-34.5T147 320q-15-12-34-9.5T83 329q-19 25-5 49 20 43 78 74 19 10 42 14.5t36 4.5h14q77 0 108-51.5T387 271V94l2.5-15 6.5-19 13.5-15 22.5-7zm-63 479L250 619 131 517h-23l142 188 143-188h-24z"/><glyph glyph-name="atilde" unicode="ã" horiz-adv-x="485" d="M300 562l-115 43q-20 5-47.5 6.5t-58.5-12T36 559l-9 4q17 43 42 69.5t49 34.5 45.5 10 34.5-1l13-4 114-43q20-5 48-6t59 13.5 42 39.5l10-5q-17-43-42.5-70t-49-35-45-9.5T313 558zm-3-315q-167-40-167-132 0-28 19-53.5T209 36q62 0 88 62v149zM432 38q23 0 30 26l12-5q-5-25-30.5-46.5T382-9q-3 0-8.5.5T354-4 329 8t-20.5 25.5T297 75q-11-36-50.5-60T155-9q-5 0-12.5.5t-27 6T81 13 53.5 44 41 94q0 25 6 44t23.5 34.5 33 25.5 52 22 62 19 79.5 21v58q0 79-36.5 115t-95.5 9q-18-9-29-18.5t-11.5-14 1.5-6.5q20-3 31-18t8.5-34.5T147 320q-15-12-34-9.5T83 329q-19 25-5 49 20 43 78 74 19 10 42 14.5t36 4.5h14q77 0 108-51.5T387 271V94l2.5-15 6.5-19 13.5-15 22.5-7z"/><glyph glyph-name="adieresis" unicode="ä" horiz-adv-x="485" d="M323 569q-19 0-32.5 13.5T277 616t13.5 33.5T323 663t33-13.5 14-33.5-14-33.5-33-13.5zm-205 47q0 20 13.5 33.5T164 663t32.5-14 13.5-33-13.5-33-32.5-14-32.5 13.5T118 616zm179-369q-167-40-167-132 0-28 19-53.5T209 36q62 0 88 62v149zM432 38q23 0 30 26l12-5q-5-25-30.5-46.5T382-9q-3 0-8.5.5T354-4 329 8t-20.5 25.5T297 75q-11-36-50.5-60T155-9q-5 0-12.5.5t-27 6T81 13 53.5 44 41 94q0 25 6 44t23.5 34.5 33 25.5 52 22 62 19 79.5 21v58q0 79-36.5 115t-95.5 9q-18-9-29-18.5t-11.5-14 1.5-6.5q20-3 31-18t8.5-34.5T147 320q-15-12-34-9.5T83 329q-19 25-5 49 20 43 78 74 19 10 42 14.5t36 4.5h14q77 0 108-51.5T387 271V94l2.5-15 6.5-19 13.5-15 22.5-7z"/><glyph glyph-name="aring" unicode="å" horiz-adv-x="485" d="M241 703q-27 0-45.5-19T177 638t18.5-46 45.5-19 46 19 19 46-19 46-46 19zm0-164q-40 0-69 29t-29 70 29 70 69 29q41 0 70-29t29-70-29-70-70-29zm56-292q-167-40-167-132 0-28 19-53.5T209 36q62 0 88 62v149zM432 38q23 0 30 26l12-5q-5-25-30.5-46.5T382-9q-3 0-8.5.5T354-4 329 8t-20.5 25.5T297 75q-11-36-50.5-60T155-9q-5 0-12.5.5t-27 6T81 13 53.5 44 41 94q0 25 6 44t23.5 34.5 33 25.5 52 22 62 19 79.5 21v58q0 79-36.5 115t-95.5 9q-18-9-29-18.5t-11.5-14 1.5-6.5q20-3 31-18t8.5-34.5T147 320q-15-12-34-9.5T83 329q-19 25-5 49 20 43 78 74 19 10 42 14.5t36 4.5h14q77 0 108-51.5T387 271V94l2.5-15 6.5-19 13.5-15 22.5-7z"/><glyph glyph-name="ae" unicode="æ" horiz-adv-x="706" d="M483 458q-47 0-78-55.5T374 251h209q0 106-29 156.5T483 458zM207 36q36 0 60 22t34 51q-14 37-16 100l-1 35q-154-48-154-129 0-29 18-54t59-25zm294 8q44-4 81.5 21t52.5 59l12-6q-5-20-15.5-39t-29-40.5-51-34.5T477-9q-59 0-103.5 28.5T309 95q-11-47-52.5-75.5T155-9q-5 0-12.5.5t-27 6T81 13 53.5 44 41 94q0 64 51.5 94.5T284 257v61q0 80-32.5 115t-90.5 8q-37-18-39-34-1-4 2-4 16-1 29-18 12-16 9-35t-18-31q-16-11-35-8.5T79 329q-17 23-5 49 25 44 77 72 19 10 40 15t33 5l11 1q76 0 108-73 62 73 140 73 91 0 136.5-56T665 238H374q2-95 32.5-141.5T501 44z"/><glyph glyph-name="ccedilla" unicode="ç" horiz-adv-x="481" d="M437 128l11-5q-11-49-57-90.5T263-9h-7l-19-54q65 15 99-12t28-70q-4-32-23.5-51T302-220t-40-5q-44 0-66 22-10 11-5 25 9 22 31 13 10-3 14.5-11.5t.5-18.5q-2-7-10-11-1-1 1.5-3t11.5-4.5 22-2.5q26 0 43 16t16 44q0 29-25 55t-80 14l27 79q-82 8-140 73T45 230q0 97 66.5 169T288 471q103 0 137-61 14-25 1-49-10-16-29-21.5t-35 4.5q-17 10-22 28.5t5 34.5q11 19 28 21 8 2-7 12-29 18-78 18-15 0-31.5-4.5T218 435t-39-36.5-29-63.5-12-94q0-92 43-140.5T284 46q51-4 94.5 22t58.5 60z"/><glyph glyph-name="egrave" unicode="è" horiz-adv-x="491" d="M364 253H130q0 90 37.5 147.5T251 458q42 0 77.5-52.5T364 253zm58-130q-13-37-58.5-61T273 43Q135 57 130 240h320q0 114-53 172.5T254 471q-94 0-156-67.5T36 227q0-100 60.5-168T250-9q79 0 126 41t58 86zM208 703l177-163h-23L127 678z"/><glyph glyph-name="eacute" unicode="é" horiz-adv-x="491" d="M130 253h234q0 100-35.5 152.5T251 458q-46 0-83.5-57.5T130 253zm292-130l12-5q-11-45-58-86T250-9Q157-9 96.5 59T36 227q0 109 62 176.5T254 471q90 0 143-58.5T450 240H130q5-183 143-197 45-5 90.5 19t58.5 61zM110 540l177 163 81-25-235-138h-23z"/><glyph glyph-name="ecircumflex" unicode="ê" horiz-adv-x="491" d="M364 253H130q0 90 37.5 147.5T251 458q42 0 77.5-52.5T364 253zm58-130q-13-37-58.5-61T273 43Q135 57 130 240h320q0 114-53 172.5T254 471q-94 0-156-67.5T36 227q0-100 60.5-168T250-9q79 0 126 41t58 86zm-59 394L244 619 125 517h-23l142 188 143-188h-24z"/><glyph glyph-name="edieresis" unicode="ë" horiz-adv-x="491" d="M333 569q-19 0-32.5 13.5T287 616t13.5 33.5T333 663t32.5-14 13.5-33-13.5-33-32.5-14zm-82-111q-46 0-83.5-57.5T130 253h234q0 100-35.5 152.5T251 458zm22-415q45-5 90.5 19t58.5 61l12-5q-11-45-58-86T250-9Q157-9 96.5 59T36 227q0 109 62 176.5T254 471q90 0 143-58.5T450 240H130q5-183 143-197zM173 569q-19 0-32.5 13.5T127 616t13.5 33.5T173 663t33-13.5 14-33.5-14-33.5-33-13.5z"/><glyph glyph-name="igrave" unicode="ì" horiz-adv-x="245" d="M207 13q-26 7-33.5 22T166 93v378L28 442v-12q31-8 41-20.5T79 370V93q0-42-6.5-57T39 13V0h168v13zM72 703l177-163h-23L-9 678z"/><glyph glyph-name="iacute" unicode="í" horiz-adv-x="245" d="M207 13V0H39v13q27 8 33.5 23T79 93v277q0 27-10 39.5T28 430v12l138 29V93q0-43 7.5-58T207 13zM2 540l177 163 81-25L25 540H2z"/><glyph glyph-name="icircumflex" unicode="î" horiz-adv-x="245" d="M207 13q-26 7-33.5 22T166 93v378L28 442v-12q31-8 41-20.5T79 370V93q0-42-6.5-57T39 13V0h168v13zm35 504L123 619 4 517h-23l142 188 143-188h-24z"/><glyph glyph-name="idieresis" unicode="ï" horiz-adv-x="245" d="M197 569q-19 0-32.5 13.5T151 616t13.5 33.5T197 663t32.5-14 13.5-33-13.5-33-32.5-14zm-160 0q-19 0-32.5 13.5T-9 616t13.5 33.5T37 663t33-13.5T84 616t-14-33.5T37 569zM207 13V0H39v13q27 8 33.5 23T79 93v277q0 27-10 39.5T28 430v12l138 29V93q0-43 7.5-58T207 13z"/><glyph glyph-name="eth" unicode="ð" horiz-adv-x="542" d="M391 331v2q-22 40-55.5 59T270 411q-58 0-91-55t-35-153Q138 4 251 4q76 0 108 76t32 251zm-13 305q51-51 85-132t34-176q0-156-61.5-246.5T251-9Q160-9 97 48.5T38 214q3 94 54.5 158.5T240 437q108 0 151-80-1 71-18.5 140.5T328 611l-158-81-14 11 164 85q-56 74-152 74v13q110 0 196-65l101 54 15-12z"/><glyph glyph-name="ntilde" unicode="ñ" horiz-adv-x="506" d="M302 562l-115 43q-20 5-47.5 6.5t-58.5-12T38 559l-9 4q17 43 42 69.5t49 34.5 45.5 10 34.5-1l13-4 114-43q20-5 48-6t59 13.5 42 39.5l10-5q-17-43-42.5-70t-49-35-45-9.5T315 558zM480 12V0H312v12q27 8 33.5 23.5T352 93v215q0 52-26.5 82.5T250 421q-36 0-65.5-28T148 335V92q0-42 7.5-57T189 13V0H21v13q27 8 33 22.5T60 92v279q0 27-9.5 39T10 430v12l138 29V366q16 43 61 74t92 31q138 0 138-160V93q0-42 7.5-58T480 12z"/><glyph glyph-name="ograve" unicode="ò" horiz-adv-x="552" d="M398 231q0-128-32.5-177.5T271 4q-63 0-96 49.5T142 231t33 177.5 96 49.5q62 0 94.5-49.5T398 231zm103 0q0 104-60 172t-170 68-170.5-68T40 231q0-103 60.5-171.5T271-9t170 68 60 172zM222 703l177-163h-23L141 678z"/><glyph glyph-name="oacute" unicode="ó" horiz-adv-x="542" d="M398 231q0 128-32.5 177.5T271 458q-63 0-96-49.5T142 231t33-177.5T271 4q62 0 94.5 49.5T398 231zm103 0q0-104-60-172T271-9 100.5 59.5 40 231q0 104 60.5 172T271 471t170-68 60-172zM139 540l177 163 81-25-235-138h-23z"/><glyph glyph-name="ocircumflex" unicode="ô" horiz-adv-x="542" d="M398 231q0-128-32.5-177.5T271 4q-63 0-96 49.5T142 231t33 177.5 96 49.5q62 0 94.5-49.5T398 231zm103 0q0 104-60 172t-170 68-170.5-68T40 231q0-103 60.5-171.5T271-9t170 68 60 172zM390 517L271 619 152 517h-23l142 188 143-188h-24z"/><glyph glyph-name="otilde" unicode="õ" horiz-adv-x="542" d="M206 605q-20 5-47.5 6.5t-58.5-12T57 559l-9 4q17 43 42 69.5t49 34.5 45.5 10 34.5-1l13-4 114-43q20-5 48-6t59 13.5 42 39.5l10-5q-17-43-42.5-70t-49-35-45-9.5T334 558l-13 4zm192-374q0-128-32.5-177.5T271 4q-63 0-96 49.5T142 231t33 177.5 96 49.5q62 0 94.5-49.5T398 231zm103 0q0 104-60 172t-170 68-170.5-68T40 231q0-103 60.5-171.5T271-9t170 68 60 172z"/><glyph glyph-name="odieresis" unicode="ö" horiz-adv-x="542" d="M352 569q-19 0-32.5 13.5T306 616t13.5 33.5T352 663t32.5-14 13.5-33-13.5-33-32.5-14zm-160 0q-19 0-32.5 13.5T146 616t13.5 33.5T192 663q20 0 33.5-13.5T239 616t-13.5-33.5T192 569zm206-338q0-128-32.5-177.5T271 4q-63 0-96 49.5T142 231t33 177.5 96 49.5q62 0 94.5-49.5T398 231zm103 0q0 104-60 172t-170 68-170.5-68T40 231q0-103 60.5-171.5T271-9t170 68 60 172z"/><glyph glyph-name="divide" unicode="÷" horiz-adv-x="625" d="M312 439q-22 0-38.5 16.5T257 494t16.5 38.5T312 549q23 0 39-16t16-39-16-39-39-16zm269-195H45v66h536v-66zM312 5q-22 0-38.5 16.5T257 60q0 23 16 39t39 16 39-16 16-39-16-39-39-16z"/><glyph glyph-name="oslash" unicode="ø" horiz-adv-x="543" d="M399 230q0 102-30 155L180 59q28-55 92-55 62 0 94.5 49T399 230zM89-67l54 92Q41 87 41 230q0 104 60.5 172.5T272 471q65 0 116-27l48 81h16l-52-88q102-61 102-207 0-103-60-171T272-9q-65 0-117 26l-49-84H89zm84 142l189 326q-27 57-90 57t-96-50-33-178q0-100 30-155z"/><glyph glyph-name="ugrave" unicode="ù" horiz-adv-x="522" d="M504 24q-32 4-41.5 14T453 83v388l-134-19v-12q35-2 41-12.5t6-58.5V117q-15-34-41.5-55.5T262 40q-47 0-75 25.5T159 145v326L17 452v-12q42-3 49-13t7-60V142Q73-9 216-9q49 0 92.5 30T366 92V7q0-2 .5-5.5T373-6t17-2l114 19v13zM204 703l177-163h-23L123 678z"/><glyph glyph-name="uacute" unicode="ú" horiz-adv-x="522" d="M504 24V11L390-8q-11-2-17 1.5T366 2v90q-14-41-57.5-71T216-9Q73-9 73 142v225q0 50-7 60t-49 13v12l142 19V145q0-54 28-79.5T262 40q36 0 62.5 21.5T366 117v252q0 48-6 58.5T319 440v12l134 19V83q0-35 9.5-45T504 24zM131 540l177 163 81-25-235-138h-23z"/><glyph glyph-name="ucircumflex" unicode="û" horiz-adv-x="522" d="M504 24q-32 4-41.5 14T453 83v388l-134-19v-12q35-2 41-12.5t6-58.5V117q-15-34-41.5-55.5T262 40q-47 0-75 25.5T159 145v326L17 452v-12q42-3 49-13t7-60V142Q73-9 216-9q49 0 92.5 30T366 92V7q0-2 .5-5.5T373-6t17-2l114 19v13zM370 517L251 619 132 517h-23l142 188 143-188h-24z"/><glyph glyph-name="udieresis" unicode="ü" horiz-adv-x="522" d="M336 569q-19 0-32.5 13.5T290 616t13.5 33.5T336 663q20 0 33.5-13.5T383 616t-13.5-33.5T336 569zm-159 0q-19 0-32.5 13.5T131 616t13.5 33.5T177 663t32.5-14 13.5-33-13.5-33-32.5-14zM504 24V11L390-8q-11-2-17 1.5T366 2v90q-14-41-57.5-71T216-9Q73-9 73 142v225q0 50-7 60t-49 13v12l142 19V145q0-54 28-79.5T262 40q36 0 62.5 21.5T366 117v252q0 48-6 58.5T319 440v12l134 19V83q0-35 9.5-45T504 24z"/><glyph glyph-name="yacute" unicode="ý" horiz-adv-x="532" d="M320 462h194v-13q-16 0-27-4t-27-18.5-34-48.5-39-89L231-134q-23-64-62-92-11-9-28-11.5t-31 3.5q-20 10-28 30t1 40q9 21 29.5 28.5T153-137t26-31q4-14 19 5 10 12 18 33L262-5 77 399q-21 47-71 50v13h207v-13q-28 0-35.5-18t-1.5-36l7-18 123-265 68 181q3 6 6 17t7.5 38 2 47.5-20 37.5-49.5 16v13zm-199 78l177 163 81-25-235-138h-23z"/><glyph glyph-name="thorn" unicode="þ" horiz-adv-x="552" d="M406 213q0 228-139 228-49 0-79.5-32T152 324V136q4-64 38-98t84-34q57 0 94.5 49T406 213zm105 14q0-113-65-174.5T277-9q-74 0-125 38v-205q0-42 7.5-55.5T193-252v-13H25v13q27 8 33.5 21.5T65-176v813q0 26-10 36.5T15 690v12l137 29V393q22 37 64.5 57.5T301 471q97 0 153.5-68.5T511 227z"/><glyph glyph-name="ydieresis" unicode="ÿ" horiz-adv-x="532" d="M343 569q-19 0-32.5 13.5T297 616t13.5 33.5T343 663t33-13.5 14-33.5-14-33.5-33-13.5zm-23-107h194v-13q-16 0-27-4t-27-18.5-34-48.5-39-89L231-134q-23-64-62-92-11-9-28-11.5t-31 3.5q-20 10-28 30t1 40q9 21 29.5 28.5T153-137t26-31q4-14 19 5 10 12 18 33L262-5 77 399q-21 47-71 50v13h207v-13q-28 0-35.5-18t-1.5-36l7-18 123-265 68 181q3 6 6 17t7.5 38 2 47.5-20 37.5-49.5 16v13zM184 569q-19 0-32.5 13.5T138 616t13.5 33.5T184 663t32.5-14 13.5-33-13.5-33-32.5-14z"/><glyph glyph-name="Abreve" unicode="Ă" d="M175 226h252L296 558zM673 13V0H445v13q67 0 21 113l-35 87H172q-9-25-12.5-37t-10-37.5T143 99t3.5-33.5 14-29.5T191 19t49-6V0H17v13q23 1 37 10t43 62.5T167 249l167 455h11q54-131 115.5-283.5T556 181l35-87q12-29 22-46t21.5-24 17.5-8.5 21-2.5zM461 906h9q0-63-30.5-101.5T342 766q-68 0-99.5 39T211 906h10q0-34 27-58.5t94-24.5q66 0 92.5 24.5T461 906z"/><glyph glyph-name="abreve" unicode="ă" horiz-adv-x="485" d="M297 247q-167-40-167-132 0-28 19-53.5T209 36q62 0 88 62v149zM432 38q23 0 30 26l12-5q-5-25-30.5-46.5T382-9q-3 0-8.5.5T354-4 329 8t-20.5 25.5T297 75q-11-36-50.5-60T155-9q-5 0-12.5.5t-27 6T81 13 53.5 44 41 94q0 25 6 44t23.5 34.5 33 25.5 52 22 62 19 79.5 21v58q0 79-36.5 115t-95.5 9q-18-9-29-18.5t-11.5-14 1.5-6.5q20-3 31-18t8.5-34.5T147 320q-15-12-34-9.5T83 329q-19 25-5 49 20 43 78 74 19 10 42 14.5t36 4.5h14q77 0 108-51.5T387 271V94l2.5-15 6.5-19 13.5-15 22.5-7zm-53 665h9q0-63-30.5-101.5T260 563q-68 0-99.5 39T129 703h10q0-34 27-58.5t94-24.5q66 0 92.5 24.5T379 703z"/><glyph glyph-name="Aogonek" unicode="Ą" d="M673 13V0h-56q-44-21-68.5-56.5T532-121q5-21 20.5-31t28.5-10l13 1q19 1 30 15.5t11 32.5h13q0-73-66-79-35-4-59 7t-31 23l-6 13Q455-54 588 0H445v13q67 0 21 113l-35 87H172q-9-25-12.5-37t-10-37.5T143 99t3.5-33.5 14-29.5T191 19t49-6V0H17v13q23 1 37 10t43 62.5T167 249l167 455h11q54-131 115.5-283.5T556 181l35-87q12-29 22-46t21.5-24 17.5-8.5 21-2.5zM175 226h252L296 558z"/><glyph glyph-name="aogonek" unicode="ą" horiz-adv-x="485" d="M399-161q19 1 30 15.5t11 32.5h13q0-73-66-79-35-4-59 7t-30 23l-7 13Q262-62 374-9q-72 10-77 84-11-36-50.5-60T155-9q-5 0-12.5.5t-27 6T81 13 53.5 44 41 94q0 25 6 44t23.5 34.5 33 25.5 52 22 62 19 79.5 21v58q0 79-36.5 115t-95.5 9q-18-9-29-18.5t-11.5-14 1.5-6.5q20-3 31-18t8.5-34.5T147 320q-15-12-34-9.5T83 329q-19 25-5 49 20 43 78 74 19 10 42 14.5t36 4.5h14q77 0 108-51.5T387 271V94l2.5-15 6.5-19 13.5-15 22.5-7q23 0 30 26l12-5q-4-19-20-36.5T415-3q-41-21-63.5-56T337-121q5-21 20.5-31t28.5-10zM297 98v149q-167-40-167-132 0-28 19-53.5T209 36q62 0 88 62z"/><glyph glyph-name="Cacute" unicode="Ć" horiz-adv-x="671" d="M603 207h13l12-154Q574 17 521.5 4T387-9Q230-9 135 88.5T40 352q0 167 95 264t252 97q85 0 141-12.5T628 652l-12-155h-13q-10 59-33.5 101t-55 63-62.5 30-65 9q-35 0-63-7t-58.5-29-51-59T181 503.5 168 352q0-88 13.5-153.5t34-102 51-58 58.5-28T387 4q33 0 66.5 11T520 48t55.5 63.5T603 207zM214 734l177 163 81-25-235-138h-23z"/><glyph glyph-name="cacute" unicode="ć" horiz-adv-x="481" d="M437 128l11-5q-11-49-57-90.5T263-9q-88 0-153 66.5T45 230q0 97 66.5 169T288 471q103 0 137-61 14-25 1-49-10-16-29-21.5t-35 4.5q-17 10-22 28.5t5 34.5q11 19 28 21 8 2-7 12-29 18-78 18-15 0-31.5-4.5T218 435t-39-36.5-29-63.5-12-94q0-92 43-140.5T284 46q51-4 94.5 22t58.5 60zM131 540l177 163 81-25-235-138h-23z"/><glyph glyph-name="Ccaron" unicode="Č" horiz-adv-x="671" d="M603 207h13l12-154Q574 17 521.5 4T387-9Q230-9 135 88.5T40 352q0 167 95 264t252 97q85 0 141-12.5T628 652l-12-155h-13q-10 59-33.5 101t-55 63-62.5 30-65 9q-35 0-63-7t-58.5-29-51-59T181 503.5 168 352q0-88 13.5-153.5t34-102 51-58 58.5-28T387 4q33 0 66.5 11T520 48t55.5 63.5T603 207zM368 820l119 102h24L368 734 226 922h23z"/><glyph glyph-name="ccaron" unicode="č" horiz-adv-x="481" d="M437 128l11-5q-11-49-57-90.5T263-9q-88 0-153 66.5T45 230q0 97 66.5 169T288 471q103 0 137-61 14-25 1-49-10-16-29-21.5t-35 4.5q-17 10-22 28.5t5 34.5q11 19 28 21 8 2-7 12-29 18-78 18-15 0-31.5-4.5T218 435t-39-36.5-29-63.5-12-94q0-92 43-140.5T284 46q51-4 94.5 22t58.5 60zM257 602l119 102h24L257 516 115 704h23z"/><glyph glyph-name="Dcaron" unicode="Ď" horiz-adv-x="716" d="M536 350q0 67-10 120.5T500.5 559 461 619.5t-46.5 39-53 21-52 9.5-50.5 2h-44V13h44q31 0 50 1t51.5 8T414 41t46.5 37 40 60 25 89T536 350zm120 0q0-87-23-152T574 96t-90-59.5T377.5 7 259 0H44v13q32 0 50 27.5t18 78.5v467q0 48-18 76.5T44 691v13h215q65 0 118.5-8.5t107-32 90-62 59-102.5T656 350zM301 820l119 102h24L301 734 159 922h23z"/><glyph glyph-name="dcaron" unicode="ď" horiz-adv-x="661" d="M546 704h71q0-35-11-67.5t-26.5-54T548 545t-27-23l-11-8-9 11q5 4 12.5 14t20 55.5T546 704zM531 23V10L422-8q-12-2-19 2.5T395 4l-1 6v55q-22-36-64-55T247-9Q149-9 92.5 60T36 237q0 112 65 173t170 61q70 0 123-37v208q0 27-10.5 38.5T343 698v13l137 27V78q0-36 10-45.5t41-9.5zM394 138v175q0 69-36 107t-85 38q-57 0-95-48.5T140 251q0-231 138-231 50 0 83 33t33 85z"/><glyph glyph-name="Dcroat" unicode="Đ" horiz-adv-x="711" d="M536 350q0 67-10 120.5T500.5 559 461 619.5t-46.5 39-53 21-52 9.5-50.5 2h-44V361h143v-19H215V13h44q31 0 50 1t51.5 8T414 41t46.5 37 40 60 25 89T536 350zm120 0q0-87-23-152T574 96t-90-59.5T377.5 7 259 0H44v13q32 0 50 27.5t18 78.5v223H20v19h92v225q0 48-18 76.5T44 691v13h215q65 0 118.5-8.5t107-32 90-62 59-102.5T656 350z"/><glyph glyph-name="dcroat" unicode="đ" horiz-adv-x="569" d="M394 138v175q0 69-36 107t-85 38q-57 0-95-48.5T140 251q0-231 138-231 50 0 83 33t33 85zM275 560v19h119v63q0 27-10.5 38.5T343 698v13l137 27V579h110v-19H480V78q0-36 10-45.5t41-9.5V10L422-8q-12-2-19 2.5T395 4l-1 6v55q-22-36-64-55T247-9Q149-9 92.5 60T36 237q0 112 65 173t170 61q70 0 123-37v126H275z"/><glyph glyph-name="Eogonek" unicode="Ę" horiz-adv-x="596" d="M521 208h13V0h-26q-44-21-68.5-56.5T423-121q5-21 20.5-31t28.5-10l13 1q19 1 30 15.5t11 32.5h13q0-73-66-79-35-4-59 7t-30 23l-7 13Q346-54 479 0H31v13q30 0 42 25t12 79v480q0 50-11.5 72T31 691v13h490V524h-13q-3 39-17.5 69T451 640.5 402 669t-58.5 15.5-54 5.5-47.5 1h-54V362h65q133 0 138 101h13V248h-13q-2 35-19 57.5t-44 31-42.5 10.5-32.5 2h-65V13h89.5l47.5 3.5 53.5 10 47.5 21L471.5 82l31 52.5L521 208z"/><glyph glyph-name="eogonek" unicode="ę" horiz-adv-x="491" d="M422 123l12-5q-9-37-43-73.5T300-4q-40-22-62.5-55.5T223-121q5-21 20.5-31t28.5-10l13 1q19 1 30 15.5t11 32.5h13q0-73-66-79-35-4-59 7t-30 23l-7 13Q148-62 258-9h-8Q157-9 96.5 59T36 227q0 109 62 176.5T254 471q90 0 143-58.5T450 240H130q5-183 143-197 45-5 90.5 19t58.5 61zM130 253h234q0 100-35.5 152.5T251 458q-46 0-83.5-57.5T130 253z"/><glyph glyph-name="Ecaron" unicode="Ě" horiz-adv-x="596" d="M521 208h13V0H31v13q30 0 42 25t12 79v480q0 50-11.5 72T31 691v13h490V524h-13q-3 39-17.5 69T451 640.5 402 669t-58.5 15.5-54 5.5-47.5 1h-54V362h65q133 0 138 101h13V248h-13q-2 35-19 57.5t-44 31-42.5 10.5-32.5 2h-65V13h89.5l47.5 3.5 53.5 10 47.5 21L471.5 82l31 52.5L521 208zM298 820l119 102h24L298 734 156 922h23z"/><glyph glyph-name="ecaron" unicode="ě" horiz-adv-x="491" d="M130 253h234q0 100-35.5 152.5T251 458q-46 0-83.5-57.5T130 253zm292-130l12-5q-11-45-58-86T250-9Q157-9 96.5 59T36 227q0 109 62 176.5T254 471q90 0 143-58.5T450 240H130q5-183 143-197 45-5 90.5 19t58.5 61zM242 602l119 102h24L242 516 100 704h23z"/><glyph glyph-name="dotlessi" unicode="ı" horiz-adv-x="245" d="M207 13V0H39v13q27 8 33.5 23T79 93v277q0 27-10 39.5T28 430v12l138 29V93q0-43 7.5-58T207 13z"/><glyph glyph-name="Lacute" unicode="Ĺ" horiz-adv-x="610" d="M538 217h13V0H52v13q31 0 43 26t12 80v488q0 45-15 64.5T44 691v13h238v-13q-36 0-55-19.5T208 602V13h36q31 0 50 .5t51.5 4 54.5 11T448.5 51t43 36 29.5 54.5 17 75.5zM143 734l177 163 81-25-235-138h-23z"/><glyph glyph-name="lacute" unicode="ĺ" horiz-adv-x="235" d="M201 13V0H33v13q27 8 33.5 23T73 92v549q0 27-10 39t-40 18v13l138 27V92q0-42 7-57t33-22zM-15 763l177 163 81-25L8 763h-23z"/><glyph glyph-name="Lcaron" unicode="Ľ" horiz-adv-x="606" d="M318 704h72q0-35-11-67.5t-27-54-32-37.5-27-23l-11-8-8 11q2 1 5 4.5t10.5 17.5 13 32 10.5 51.5 5 73.5zm220-487h13V0H52v13q31 0 43 26t12 80v488q0 45-15 64.5T44 691v13h238v-13q-36 0-55-19.5T208 602V13h36q31 0 50 .5t51.5 4 54.5 11T448.5 51t43 36 29.5 54.5 17 75.5z"/><glyph glyph-name="lcaron" unicode="ľ" horiz-adv-x="362" d="M235 704h72q0-35-11-67.5t-27-54-32-37.5-27-23l-11-8-8 11q2 1 5 4.5t10.5 17.5 13 32 10.5 51.5 5 73.5zM201 13V0H33v13q27 8 33.5 23T73 92v549q0 27-10 39t-40 18v13l138 27V92q0-42 7-57t33-22z"/><glyph glyph-name="Lslash" unicode="Ł" horiz-adv-x="630" d="M563 217h12V0H76v13q31 0 43 27.5t12 82.5v167L8 221v18l123 69v299q0 45-15 64.5T68 691v13h238v-13q-36 0-54.5-19T233 602V365l203 115v-18L233 347V13h36q71 0 124 11.5t85 30 51.5 46 26.5 55 7 61.5z"/><glyph glyph-name="lslash" unicode="ł" horiz-adv-x="295" d="M11 262v18l90 54v310q0 27-10 39.5T51 701v13l137 32V389l85 52v-18l-85-52V92q0-42 7.5-57T229 13V0H61v13q27 8 33.5 23t6.5 56v224z"/><glyph glyph-name="Nacute" unicode="Ń" horiz-adv-x="807" d="M496 704h286v-12q-30 0-53.5-9t-38-21-25-35-15.5-38.5-7.5-46.5-2.5-44V0h-32L183 548V250q0-31 .5-49t4-50.5 12-53 22-42 37.5-32T314 13V0H25v13q30 0 53.5 9T117 43.5t26 35 16 40 7.5 46 3 43.5.5 42v313l-41 53q-12 15-23 26.5t-19 19-17.5 13-14 8.5-13.5 5-11.5 2.5-11 1-9.5.5v12h185l432-558v309q0 28-.5 43t-2.5 44-7 46-14.5 39.5-23 34.5-35 21-48.5 9v12zm-227 30l177 163 81-25-235-138h-23z"/><glyph glyph-name="nacute" unicode="ń" horiz-adv-x="506" d="M480 12V0H312v12q27 8 33.5 23.5T352 93v215q0 52-26.5 82.5T250 421q-36 0-65.5-28T148 335V92q0-42 7.5-57T189 13V0H21v13q27 8 33 22.5T60 92v279q0 27-9.5 39T10 430v12l138 29V366q16 43 61 74t92 31q138 0 138-160V93q0-42 7.5-58T480 12zM130 540l177 163 81-25-235-138h-23z"/><glyph glyph-name="Ncaron" unicode="Ň" horiz-adv-x="807" d="M496 704h286v-12q-30 0-53.5-9t-38-21-25-35-15.5-38.5-7.5-46.5-2.5-44V0h-32L183 548V250q0-31 .5-49t4-50.5 12-53 22-42 37.5-32T314 13V0H25v13q30 0 53.5 9T117 43.5t26 35 16 40 7.5 46 3 43.5.5 42v313l-41 53q-12 15-23 26.5t-19 19-17.5 13-14 8.5-13.5 5-11.5 2.5-11 1-9.5.5v12h185l432-558v309q0 28-.5 43t-2.5 44-7 46-14.5 39.5-23 34.5-35 21-48.5 9v12zM381 820l119 102h24L381 734 239 922h23z"/><glyph glyph-name="ncaron" unicode="ň" horiz-adv-x="506" d="M480 12V0H312v12q27 8 33.5 23.5T352 93v215q0 52-26.5 82.5T250 421q-36 0-65.5-28T148 335V92q0-42 7.5-57T189 13V0H21v13q27 8 33 22.5T60 92v279q0 27-9.5 39T10 430v12l138 29V366q16 43 61 74t92 31q138 0 138-160V93q0-42 7.5-58T480 12zM262 602l119 102h24L262 516 120 704h23z"/><glyph glyph-name="Ohungarumlaut" unicode="Ő" horiz-adv-x="738" d="M575 347q0 192-55.5 272.5T366 700q-47 0-83.5-17t-66-56-45-109.5T156 347t15.5-169T217 72t65.5-52.5T366 4q47 0 83 15.5T514.5 72t45 106T575 347zm116 0q0-157-83.5-256.5T366-9 124.5 90.5 41 347q0 158 84 262t241 104 241-104 84-262zM396 735l171 163 86-24-235-139h-22zm-170 0l171 163 86-24-235-139h-22z"/><glyph glyph-name="ohungarumlaut" unicode="ő" horiz-adv-x="542" d="M398 231q0 128-32.5 177.5T271 458q-63 0-96-49.5T142 231t33-177.5T271 4q62 0 94.5 49.5T398 231zm103 0q0-104-60-172T271-9 100.5 59.5 40 231q0 104 60.5 172T271 471t170-68 60-172zM273 541l171 163 86-24-235-139h-22zm-170 0l171 163 86-24-235-139h-22z"/><glyph glyph-name="OE" unicode="Œ" horiz-adv-x="933" d="M447 100v497q0 62-26.5 82T348 699q-63 0-103-30.5t-63.5-110T158 346q0-81 8.5-141t24-98.5 39.5-62T282.5 12 348 3q45 0 72 20t27 77zm-99 613q20 0 67-9h436V524h-13q-4 35-15.5 62T797 630.5 760 660t-40 18-45 9-41.5 3.5-38.5.5h-45V362h45q15 0 23 .5t28.5 5.5 32 14.5 23 30.5 12.5 50h13V248h-13q-1 29-12.5 50t-23 30.5T646 343t-28.5 5H550V13h36q101 0 147 17 105 40 118 178h13V0H417q-39-9-69-9-156 0-230.5 97.5T43 346q0 77 17 141.5t52.5 116T208 684t140 29z"/><glyph glyph-name="oe" unicode="œ" horiz-adv-x="788" d="M459 247h206q0 106-29.5 158.5T566 458q-46 0-76.5-57T459 247zm260-122l12-6q-5-21-14.5-40T689 38.5 639.5 4 567-9q-93 0-153 86-29-43-66.5-64.5T252-9Q144-9 92.5 57T41 229q0 107 51.5 174.5T252 471q107 0 163-92 65 92 151 92 181 0 181-237H459q1-93 32.5-138.5T584 45q43-4 82.5 22t52.5 58zM252 458q-57 0-83-49t-26-180q0-130 25.5-177.5T252 4q57 0 82 47.5T359 229t-25.5 179.5T252 458z"/><glyph glyph-name="Racute" unicode="Ŕ" horiz-adv-x="643" d="M419 513q0 37-6 65.5T399.5 626t-24 32-29 19.5-37 9.5-39 3.5-43.5.5h-38V336h31q28 0 41.5.5t37 2T333 345t28 13 25 21 17 31 12.5 44 3.5 59zM637 13V0H512l-32.5 7L456 18.5l-16.5 29-16 42L407 156q-10 39-16 62-28 105-155 105h-47V104q0-50 15.5-70.5T253 13V0H29v13q34 0 48 21.5T91 117v498q0 45-14 60.5T29 691v13h191q65 0 109-4t85-15.5 64.5-32 37-55.5 13.5-84q0-96-48.5-136.5T343 330q25-1 40-3.5t38.5-15.5 40-35.5 35-67T530 101q19-81 107-88zM164 734l177 163 81-25-235-138h-23z"/><glyph glyph-name="racute" unicode="ŕ" horiz-adv-x="364" d="M286 468q37 4 57-19 15-18 13-40.5T336 371q-17-14-39.5-12.5T258 378q-15 19-11 38 1 5-5 5-21 2-53-28-24-23-37-51V93q0-43 7.5-58T193 13V0H24v13q27 8 33.5 23T64 93v277q0 27-10 39.5T14 430v12l138 29V366q26 47 63 72.5t71 29.5zM68 540l177 163 81-25L91 540H68z"/><glyph glyph-name="Rcaron" unicode="Ř" horiz-adv-x="643" d="M419 513q0 37-6 65.5T399.5 626t-24 32-29 19.5-37 9.5-39 3.5-43.5.5h-38V336h31q28 0 41.5.5t37 2T333 345t28 13 25 21 17 31 12.5 44 3.5 59zM637 13V0H512l-32.5 7L456 18.5l-16.5 29-16 42L407 156q-10 39-16 62-28 105-155 105h-47V104q0-50 15.5-70.5T253 13V0H29v13q34 0 48 21.5T91 117v498q0 45-14 60.5T29 691v13h191q65 0 109-4t85-15.5 64.5-32 37-55.5 13.5-84q0-96-48.5-136.5T343 330q25-1 40-3.5t38.5-15.5 40-35.5 35-67T530 101q19-81 107-88zM264 820l119 102h24L264 734 122 922h23z"/><glyph glyph-name="rcaron" unicode="ř" horiz-adv-x="364" d="M286 468q37 4 57-19 15-18 13-40.5T336 371q-17-14-39.5-12.5T258 378q-15 19-11 38 1 5-5 5-21 2-53-28-24-23-37-51V93q0-43 7.5-58T193 13V0H24v13q27 8 33.5 23T64 93v277q0 27-10 39.5T14 430v12l138 29V366q26 47 63 72.5t71 29.5zM175 603l119 102h24L175 517 33 705h23z"/><glyph glyph-name="Sacute" unicode="Ś" horiz-adv-x="564" d="M479 73q-2-3-5.5-8.5t-19.5-20-36-25T361 0t-80-9Q209-9 149.5 5T66 33L43 47v192h12q5-50 17-89t36-73.5T176 23 281 4q73 0 107.5 45.5t19.5 106T336 256L170 363Q-30 496 61 635q2 3 6 8.5t20 19 35.5 23.5 53.5 18.5 73 8.5q64 0 121.5-11.5T453 678l25-12V498h-14q-4 41-14.5 73.5t-33 63.5-65 48T249 700q-40 0-72-23.5t-45-58 6-77.5 72-78l165-109q65-42 98-93.5t31.5-98T479 73zM138 734l177 163 81-25-235-138h-23z"/><glyph glyph-name="sacute" unicode="ś" horiz-adv-x="417" d="M350 40q-4-5-12-13.5t-41-22T223-9q-54 0-97.5 10T65 21L48 31v136h13Q78 4 223 4q50 0 68 28.5t2.5 65.5-53.5 62l-101 61q-71 48-90 95t12 98q1 2 3.5 6T78 434t24.5 17.5T140 465t53 6q51 0 92-8t56-16l15-8V317h-12q-17 141-151 141-46 0-65.5-25.5t-5.5-61 56-62.5l101-63q68-42 87.5-98T350 40zM73 540l177 163 81-25L96 540H73z"/><glyph glyph-name="Scedilla" unicode="Ş" horiz-adv-x="564" d="M479 73q-2-3-5.5-8.5t-19.5-20-36-25T361 0t-80-9h-24l-19-54q65 15 99-12t28-70q-4-32-23.5-51T303-220t-40-5q-44 0-66 22-10 11-5 25 9 22 31 13 10-3 14.5-11.5t.5-18.5q-2-7-10-11-1-1 1.5-3t11.5-4.5 22-2.5q26 0 43 16t16 44q0 29-25 55t-80 14l27 79Q183-4 133 9.5T63 35L43 47v192h12q5-50 17-89t36-73.5T176 23 281 4q73 0 107.5 45.5t19.5 106T336 256L170 363Q-30 496 61 635q2 3 6 8.5t20 19 35.5 23.5 53.5 18.5 73 8.5q64 0 121.5-11.5T453 678l25-12V498h-14q-4 41-14.5 73.5t-33 63.5-65 48T249 700q-40 0-72-23.5t-45-58 6-77.5 72-78l165-109q65-42 98-93.5t31.5-98T479 73z"/><glyph glyph-name="scedilla" unicode="ş" horiz-adv-x="417" d="M350 40q-4-5-12-13.5t-41-22T223-9h-26l-19-54q65 15 99-12t28-70q-4-32-23.5-51T243-220t-40-5q-44 0-66 22-10 11-5 25 9 22 31 13 10-3 14.5-11.5t.5-18.5q-2-7-10-11-1-1 1.5-3t11.5-4.5 22-2.5q26 0 43 16t16 44q0 29-25 55t-80 14l27 79q-41 3-75 13T62 23l-14 8v136h13Q78 4 223 4q50 0 68 28.5t2.5 65.5-53.5 62l-101 61q-71 48-90 95t12 98q1 2 3.5 6T78 434t24.5 17.5T140 465t53 6q51 0 92-8t56-16l15-8V317h-12q-17 141-151 141-46 0-65.5-25.5t-5.5-61 56-62.5l101-63q68-42 87.5-98T350 40z"/><glyph glyph-name="Scaron" unicode="Š" horiz-adv-x="564" d="M479 73q-2-3-5.5-8.5t-19.5-20-36-25T361 0t-80-9Q209-9 149.5 5T66 33L43 47v192h12q5-50 17-89t36-73.5T176 23 281 4q73 0 107.5 45.5t19.5 106T336 256L170 363Q-30 496 61 635q2 3 6 8.5t20 19 35.5 23.5 53.5 18.5 73 8.5q64 0 121.5-11.5T453 678l25-12V498h-14q-4 41-14.5 73.5t-33 63.5-65 48T249 700q-40 0-72-23.5t-45-58 6-77.5 72-78l165-109q65-42 98-93.5t31.5-98T479 73zM264 820l119 102h24L264 734 122 922h23z"/><glyph glyph-name="scaron" unicode="š" horiz-adv-x="417" d="M197 580l119 102h24L197 494 55 682h23zM350 40q-4-5-12-13.5t-41-22T223-9q-54 0-97.5 10T65 21L48 31v136h13Q78 4 223 4q50 0 68 28.5t2.5 65.5-53.5 62l-101 61q-71 48-90 95t12 98q1 2 3.5 6T78 434t24.5 17.5T140 465t53 6q51 0 92-8t56-16l15-8V317h-12q-17 141-151 141-46 0-65.5-25.5t-5.5-61 56-62.5l101-63q68-42 87.5-98T350 40z"/><glyph glyph-name="uni0162" unicode="Ţ" horiz-adv-x="652" d="M19 704h612V528h-13q-1 38-13.5 67.5T571 642t-41.5 28-44 15-34 5-18.5 1h-59V97q0-84 73-84V0H322l-22-63q65 15 99-12t28-70q-4-32-23.5-51T365-220t-40-5q-44 0-66 22-10 11-5 25 9 22 31 13 10-3 14.5-11.5t.5-18.5q-2-7-10-11-1-1 1.5-3t11.5-4.5 22-2.5q26 0 43 16t16 44q0 29-25 55t-80 14l30 87H203v13q35 0 53.5 18.5T275 97v594h-59q-16 0-31-1t-45-10-51-24.5-38.5-49T32 528H19v176z"/><glyph glyph-name="uni0163" unicode="ţ" horiz-adv-x="316" d="M301 81l6-3q-11-34-45.5-60.5T187-9h-6l-19-54q65 15 99-12t28-70q-4-32-23.5-51T227-220t-40-5q-44 0-66 22-10 11-5 25 9 22 31 13 10-3 14.5-11.5t.5-18.5q-2-7-10-11-1-1 1.5-3t11.5-4.5 22-2.5q26 0 43 16t16 44q0 29-25 55t-80 14l27 79q-49 5-73.5 39T70 144v301H19l-2 17h53v142l87 14V462h119l-3-17H157V147q0-58 20-82t61-24q21 0 38.5 11.5T301 81z"/><glyph glyph-name="Tcaron" unicode="Ť" horiz-adv-x="652" d="M19 704h612V528h-13q-1 38-13.5 67.5T571 642t-41.5 28-44 15-34 5-18.5 1h-59V97q0-84 73-84V0H203v13q35 0 53.5 18.5T275 97v594h-59q-16 0-31-1t-45-10-51-24.5-38.5-49T32 528H19v176zm306 116l119 102h24L325 734 183 922h23z"/><glyph glyph-name="tcaron" unicode="ť" horiz-adv-x="328" d="M226 704h72q0-35-11-67.5t-27-54-32-37.5-27-23l-11-8-8 11q2 1 5 4.5t10.5 17.5 13 32 10.5 51.5 5 73.5zm68-622l10-5q-11-35-43.5-60.5T187-9q-59 0-88 33.5T70 144v305H19l-2 13h53v142l87 14V462h119l-3-13H157V147q0-107 76-107 21 0 38 12.5T294 82z"/><glyph glyph-name="Uring" unicode="Ů" horiz-adv-x="716" d="M322-9Q220-9 155 56.5T90 240v364q0 48-18 67.5T19 691v13h249v-13q-39 0-59-17t-20-71V231q0-92 50-143.5T371 36q79 0 130 53t51 147v272q0 30-1 47t-4 41.5-10.5 38.5-20.5 28.5-34 21-49 6.5v13h260v-13q-27 0-48-6t-34.5-13-22.5-24-13.5-27.5-7-36-2.5-36V236q0-125-70-185T322-9zm-29 889q0-26 18-44t43-18q26 0 44 18t18 44-18 44-44 18-43.5-18-17.5-44zm-33 0q0 39 28 66.5t66 27.5q39 0 66.5-27.5T448 880q0-38-27.5-66T354 786q-38 0-66 28t-28 66z"/><glyph glyph-name="uring" unicode="ů" horiz-adv-x="522" d="M504 24V11L390-8q-11-2-17 1.5T366 2v90q-14-41-57.5-71T216-9Q73-9 73 142v225q0 50-7 60t-49 13v12l142 19V145q0-54 28-79.5T262 40q36 0 62.5 21.5T366 117v252q0 48-6 58.5T319 440v12l134 19V83q0-35 9.5-45T504 24zM219 615q0-26 18-44t43-18q26 0 44 18t18 44-18 44-44 18-43.5-18-17.5-44zm-33 0q0 39 28 66.5t66 27.5q39 0 66.5-27.5T374 615q0-38-27.5-66T280 521q-38 0-66 28t-28 66z"/><glyph glyph-name="Uhungarumlaut" unicode="Ű" horiz-adv-x="716" d="M322-9Q220-9 155 56.5T90 240v364q0 48-18 67.5T19 691v13h249v-13q-39 0-59-17t-20-71V231q0-92 50-143.5T371 36q79 0 130 53t51 147v272q0 30-1 47t-4 41.5-10.5 38.5-20.5 28.5-34 21-49 6.5v13h260v-13q-27 0-48-6t-34.5-13-22.5-24-13.5-27.5-7-36-2.5-36V236q0-125-70-185T322-9zm66 744l171 163 86-24-235-139h-22zm-170 0l171 163 86-24-235-139h-22z"/><glyph glyph-name="uhungarumlaut" unicode="ű" horiz-adv-x="522" d="M504 24V11L390-8q-11-2-17 1.5T366 2v90q-14-41-57.5-71T216-9Q73-9 73 142v225q0 50-7 60t-49 13v12l142 19V145q0-54 28-79.5T262 40q36 0 62.5 21.5T366 117v252q0 48-6 58.5T319 440v12l134 19V83q0-35 9.5-45T504 24zM278 541l171 163 86-24-235-139h-22zm-170 0l171 163 86-24-235-139h-22z"/><glyph glyph-name="Ydieresis" unicode="Ÿ" horiz-adv-x="692" d="M383 828q0 20 13.5 33.5T429 875t33-14 14-33-14-33-33-14-32.5 13.5T383 828zm38-124h257v-12q-22 0-36-4.5T602.5 664 545 596.5 473 470l-77-156V112q0-56 19.5-77.5T471 13V0H227v13q36 0 55.5 21.5T302 112v176L114 614q-21 36-41 54t-31 21-33 4v11h257v-11q-13 0-20.5-.5t-19-6.5-13.5-17 4.5-34 25.5-56l146-247 75 155q11 23 18 40t15.5 43.5 8 45.5-6 37.5-26 28.5-52.5 10v12zM223 828q0 19 13.5 33t32.5 14 33-13.5 14-33.5-14-33.5-33-13.5-32.5 14-13.5 33z"/><glyph glyph-name="Zacute" unicode="Ź" horiz-adv-x="550" d="M159 13h23q151 0 221 54.5T494 233h17L486 0H24l380 691h-49q-142 0-209-41.5T58 502H40l18 202h457zm2 721l177 163 81-25-235-138h-23z"/><glyph glyph-name="zacute" unicode="ź" horiz-adv-x="432" d="M389 462L141 12q109 0 161 35t63 105h13L369 0H29l259 449q-107 0-163.5-26T57 330H44l5 132h340zm-289 78l177 163 81-25-235-138h-23z"/><glyph glyph-name="Zdotaccent" unicode="Ż" horiz-adv-x="550" d="M159 13h23q151 0 221 54.5T494 233h17L486 0H24l380 691h-49q-142 0-209-41.5T58 502H40l18 202h457zm126 780q-22 0-38 16t-16 38 16 37.5 38 15.5 37.5-15.5T338 847t-15.5-38-37.5-16z"/><glyph glyph-name="zdotaccent" unicode="ż" horiz-adv-x="432" d="M389 462L141 12q109 0 161 35t63 105h13L369 0H29l259 449q-107 0-163.5-26T57 330H44l5 132h340zM221 573q-23 0-38.5 15.5T167 627q0 22 16 37.5t38 15.5 37.5-15.5T274 627t-15.5-38-37.5-16z"/><glyph glyph-name="Zcaron" unicode="Ž" horiz-adv-x="550" d="M159 13h23q151 0 221 54.5T494 233h17L486 0H24l380 691h-49q-142 0-209-41.5T58 502H40l18 202h457zm128 807l119 102h24L287 734 145 922h23z"/><glyph glyph-name="zcaron" unicode="ž" horiz-adv-x="432" d="M226 580l119 102h24L226 494 84 682h23zm163-118L141 12q109 0 161 35t63 105h13L369 0H29l259 449q-107 0-163.5-26T57 330H44l5 132h340z"/><glyph glyph-name="florin" unicode="ƒ" horiz-adv-x="620" d="M581 636q-8-18-27-24.5t-35 2.5q-18 9-24 27t2 36 27 23q6 1 0 10-8 13-39 13-28 0-50.5-41.5T404 598l-9-41-24-176h111l-6-14H370L333 98q-25-191-66-264.5T128-239q-66 0-96 46-17 26-3 53 8 18 27 24t36-2 23.5-27-2.5-37q-7-16-26-22-8-2-1-11 9-12 42-12 28 0 51 43.5T210-96l9 43 59 420h-76l1 14h75q10 79 24.5 138.5t38 110.5 60 78 84.5 27q35 0 59.5-15.5T578 689q17-26 3-53z"/><glyph glyph-name="uni0218" unicode="Ș" horiz-adv-x="564" d="M236-265l-6 8q31 22 44.5 49t11.5 44-11 18q-24 3-39 17-17 17-17.5 41.5T235-46t41.5 17T318-46q24-31 19-72t-28-78q-30-47-73-69zM479 73q-2-3-5.5-8.5t-19.5-20-36-25T361 0t-80-9Q209-9 149.5 5T66 33L43 47v192h12q5-50 17-89t36-73.5T176 23 281 4q73 0 107.5 45.5t19.5 106T336 256L170 363Q-30 496 61 635q2 3 6 8.5t20 19 35.5 23.5 53.5 18.5 73 8.5q64 0 121.5-11.5T453 678l25-12V498h-14q-4 41-14.5 73.5t-33 63.5-65 48T249 700q-40 0-72-23.5t-45-58 6-77.5 72-78l165-109q65-42 98-93.5t31.5-98T479 73z"/><glyph glyph-name="uni0219" unicode="ș" horiz-adv-x="417" d="M175-265l-6 8q31 22 44.5 49t11.5 44-11 18q-24 3-39 17-17 17-17.5 41.5T174-46t41.5 17T257-46q24-31 19-72t-28-78q-30-47-73-69zM350 40q-4-5-12-13.5t-41-22T223-9q-54 0-97.5 10T65 21L48 31v136h13Q78 4 223 4q50 0 68 28.5t2.5 65.5-53.5 62l-101 61q-71 48-90 95t12 98q1 2 3.5 6T78 434t24.5 17.5T140 465t53 6q51 0 92-8t56-16l15-8V317h-12q-17 141-151 141-46 0-65.5-25.5t-5.5-61 56-62.5l101-63q68-42 87.5-98T350 40z"/><glyph glyph-name="uni021A" unicode="Ț" horiz-adv-x="652" d="M286-265l-6 8q31 22 44.5 49t11.5 44-11 18q-24 3-39 17-17 17-17.5 41.5T285-46t41.5 17T368-46q24-31 19-72t-28-78q-30-47-73-69zM19 704h612V528h-13q-1 38-13.5 67.5T571 642t-41.5 28-44 15-34 5-18.5 1h-59V97q0-84 73-84V0H203v13q35 0 53.5 18.5T275 97v594h-59q-16 0-31-1t-45-10-51-24.5-38.5-49T32 528H19v176z"/><glyph glyph-name="uni021B" unicode="ț" horiz-adv-x="316" d="M136-265l-6 8q31 22 44.5 49t11.5 44-11 18q-24 3-39 17-17 17-17.5 41.5T135-46t41.5 17T218-46q24-31 19-72t-28-78q-30-47-73-69zM294 82l10-5q-11-35-43.5-60.5T187-9q-59 0-88 33.5T70 144v305H19l-2 13h53v142l87 14V462h119l-3-13H157V147q0-107 76-107 21 0 38 12.5T294 82z"/><glyph glyph-name="circumflex" unicode="ˆ" horiz-adv-x="285" d="M142 633L23 531H0l142 188 143-188h-24z"/><glyph glyph-name="caron" unicode="ˇ" horiz-adv-x="287" d="M142 618l119 102h24L142 532 0 720h23z"/><glyph glyph-name="uni02C9" unicode="ˉ" horiz-adv-x="305" d="M330 593H-25v56h355v-56z"/><glyph glyph-name="breve" unicode="˘" horiz-adv-x="257" d="M249 703h9q0-63-30.5-101.5T130 563q-68 0-99.5 39T-1 703H9q0-34 27-58.5t94-24.5q66 0 92.5 24.5T249 703z"/><glyph glyph-name="dotaccent" unicode="˙" horiz-adv-x="264" d="M134 592q-22 0-38 16t-16 38 16 37.5 38 15.5 37.5-15.5T187 646t-15.5-38-37.5-16z"/><glyph glyph-name="ring" unicode="˚" horiz-adv-x="274" d="M78 637q0-26 18-44t43-18q26 0 44 18t18 44-18 44-44 18-43.5-18T78 637zm-33 0q0 39 28 66.5t66 27.5q39 0 66.5-27.5T233 637q0-38-27.5-66T139 543q-38 0-66 28t-28 66z"/><glyph glyph-name="ogonek" unicode="˛" horiz-adv-x="271" d="M155-131q5-21 20.5-31t28.5-10l13 1q19 1 30 15.5t11 32.5h13q0-73-66-79-35-4-59 7t-30 23l-7 13Q74-55 240 1v-11q-44-21-68.5-56.5T155-131z"/><glyph glyph-name="tilde" unicode="˜" horiz-adv-x="420" d="M253 566l-115 43q-20 5-47.5 6.5t-58.5-12-43-40.5l-9 4q17 43 42 69.5T71 671t45.5 10 34.5-1l13-4 114-43q20-5 48-6t59 13.5 42 39.5l10-5q-17-43-42.5-70t-49-35-45-9.5T266 562z"/><glyph glyph-name="hungarumlaut" unicode="˝" horiz-adv-x="516" d="M257 557l171 163 86-24-235-139h-22zm-170 0l171 163 86-24-235-139H87z"/><glyph glyph-name="uni03A9" unicode="Ω" horiz-adv-x="703" d="M642 138h12L628 0H382q7 36 30.5 82.5t47 86.5 42 113.5T520 445q0 73-12 126t-29 81.5-43 45-47 20.5-47 4-47.5-4-47-21-43-45-29.5-81-12-126q0-89 18.5-162.5t42-113.5T271 82.5 302 0H55L29 138h13q13-33 36.5-44.5T141 82h111q-4 14-16 28.5T201 146t-33 32Q58 295 58 450q0 124 73.5 204.5T342 735t210.5-80.5T626 450q0-155-110-272-10-11-33-32t-35-35.5T432 82h111q38 0 62 11.5t37 44.5z"/><glyph glyph-name="uni03BC" unicode="μ" horiz-adv-x="518" d="M498 24V11L384-8q-11-2-17 1.5T360 2v90q-15-56-79.5-87T153 6v-175q0-36 10-48t42-15v-13L92-264q-12-2-18 1.5t-6 8.5l-1 5v616q0 50-7 60t-49 13v12l142 19V138q2-50 30-74t73-24q36 0 62.5 21.5T360 117v252q0 48-6 58.5T313 440v12l134 19V83q0-35 9.5-45T498 24z"/><glyph glyph-name="pi" unicode="π" horiz-adv-x="574" d="M507 52l11-5q-6-25-26.5-40.5T437-9q-37 0-57.5 20.5T356 52l-2 21v319H226l-10-217q-2-40-17.5-77t-37-61.5-42-43T84-34l-14-8-6 9q45 35 72 93t31 121l11 211h-9q-104-3-150-66l-10 7q2 5 6 13.5t18.5 30 32 38 48 30T178 459h246q68 0 95.5 11t29.5 50h11q0-67-26.5-97.5T439 392h-14V98q0-35 14.5-50.5T475 32q11 0 19 5t10 10z"/><glyph glyph-name="uni2010" unicode="‐" horiz-adv-x="447" d="M64 286h315v-64H64v64z"/><glyph glyph-name="endash" unicode="–" horiz-adv-x="561" d="M0 278h561v-52H0v52z"/><glyph glyph-name="emdash" unicode="—" horiz-adv-x="1055" d="M0 277h1055v-51H0v51z"/><glyph glyph-name="quoteleft" unicode="‘" horiz-adv-x="227" d="M162 701l6-8q-31-22-44.5-49T112 600t11-18q24-3 39-17 17-17 17.5-41.5T163 482t-41.5-17T80 482q-24 31-19 72t28 78q30 47 73 69z"/><glyph glyph-name="quoteright" unicode="’" horiz-adv-x="227" d="M75 465l-6 8q31 22 44.5 49t11.5 44-11 18q-24 3-39 17-17 17-17.5 41.5T74 684t41.5 17 41.5-17q24-31 19-72t-28-78q-30-47-73-69z"/><glyph glyph-name="quotesinglbase" unicode="‚" horiz-adv-x="236" d="M74-126l-6 8q31 22 44.5 49T124-25 113-7Q89-4 74 10 57 27 56.5 51.5T73 93t41.5 17T156 93q24-31 19-72t-28-78q-30-47-73-69z"/><glyph glyph-name="quotedblleft" unicode="“" horiz-adv-x="437" d="M353 708l6-8q-31-22-44.5-48.5t-12-43.5 11.5-19q25-4 39-17 17-17 17.5-41.5T354 489t-41.5-17-41.5 17q-24 31-19 72t28 78q27 45 73 69zm-200 0l7-8q-31-22-45-48.5T103 608t11-19q25-4 40-17 17-17 17.5-41.5T155 489t-41.5-17T72 489q-24 31-19 72t28 78q27 45 72 69z"/><glyph glyph-name="quotedblright" unicode="”" horiz-adv-x="428" d="M74 463l-6 8q31 22 44.5 48.5t12 43.5-11.5 19q-25 4-39 17-17 17-17.5 41.5T73 682t41.5 17 41.5-17q24-31 19-72t-28-78q-27-45-73-69zm200 0l-7 8q31 22 45 48.5t12 43.5-11 19q-25 4-40 17-17 17-17.5 41.5T272 682t41.5 17 41.5-17q24-31 19-72t-28-78q-27-45-72-69z"/><glyph glyph-name="quotedblbase" unicode="„" horiz-adv-x="428" d="M73-125l-6 8q31 22 44.5 48.5t12 43.5T112-6Q87-2 73 11 56 28 55.5 52.5T72 94t41.5 17T155 94q24-31 19-72t-28-78q-27-45-73-69zm200 0l-7 8q31 22 45 48.5T323-25 312-6q-25 4-40 17-17 17-17.5 41.5T271 94t41.5 17T354 94q24-31 19-72t-28-78q-27-45-72-69z"/><glyph glyph-name="dagger" unicode="†" horiz-adv-x="392" d="M195 645q-18 0-30.5 12.5T152 688q0 17 12.5 29.5T195 730q17 0 29.5-12.5T237 688q0-18-12.5-30.5T195 645zm-86-197q18-12 34-39l-4-3q-8 11-20.5 17.5t-20 7T89 429q-2-16-10-24-10-11-25.5-11.5T27 404t-11 26 11 26q28 28 82-8zm94-45q-2-53 37-111-41-241-41-557h-7q0 310-42 557 17 27 26.5 54.5T186 388l1 15q0 32-9.5 76.5T168 545q1 2 0 15.5t6 29.5 21 16 21-15 6-31v-15q0-21-9.5-65.5T203 403zm160 53q11-10 11-25.5T363 404t-26.5-10.5T311 405q-9 9-11 24-2 2-9 2t-19.5-7-20.5-18l-5 3q16 26 35 39 54 36 82 8z"/><glyph glyph-name="daggerdbl" unicode="‡" horiz-adv-x="465" d="M240 355q0-35 16.5-65t39.5-44q-56-40-56-108 0-35 11.5-77T263-6v-7.5l-1-16-3.5-20.5-9.5-16.5-17-7.5q-16 0-24 17t-8 34v17q0 25 11.5 66.5T223 138q0 35-16.5 64.5T167 246q23 16 39.5 45t16.5 64-11.5 76.5T200 498v7.5l1 16.5 3.5 21 9.5 16.5 17 7.5q16 0 24-17.5t8-34.5v-17q0-25-11.5-66T240 355zm111 48q-2 2-10 2t-22.5-8.5T294 376l-5 4q18 29 39 44 14 10 29.5 16t34 5.5T422 433t12-29-12-30q-13-12-30-12t-29 12q-10 10-12 29zM231 612q-19 0-33.5 14T183 660t14 34.5 34 14.5 34.5-14.5T280 660t-14.5-34-34.5-14zm1-730q20 0 34-14t14-34q0-21-14-35t-34-14-34.5 14-14.5 35q0 20 14.5 34t34.5 14zM100 374q-12-12-29.5-12T40 374q-12 13-12 30t12 29 30.5 12.5 34-5.5 29.5-16q23-16 39-44l-5-4q-10 12-24 20.5t-22 8.5-10-2q-2-19-12-29zm263-254q12 13 29.5 13t30.5-12q12-13 12-30t-12-29-30.5-12.5-34 5.5T329 71q-23 16-39 44l4 4q10-12 24.5-20.5T341 90t10 2q2 18 12 28zM113 92q2-2 10-2t22 8.5 24 20.5l5-4q-18-29-39-44-14-10-30-16t-34-5.5T41 62 29 91t12 30q13 12 30 12t29-13q11-11 13-28z"/><glyph glyph-name="bullet" unicode="•" horiz-adv-x="423" d="M214 243q-41 0-70 29t-29 69q0 42 29 70.5t70 28.5 70-28.5 29-70.5q0-41-29-69.5T214 243z"/><glyph glyph-name="ellipsis" unicode="…" horiz-adv-x="709" d="M616 50q0-24-17.5-41T556-8 514 9t-17 41q0 25 17 42.5t42 17.5 42.5-17.5T616 50zm-207 0q0-24-17.5-41T350-8q-25 0-42 17t-17 41q0 25 17 42.5t42 17.5q24 0 41.5-17.5T409 50zm-205 0q0-24-17.5-41T145-8q-25 0-42 17T86 50q0 25 17 42.5t42 17.5q24 0 41.5-17.5T204 50z"/><glyph glyph-name="perthousand" unicode="‰" horiz-adv-x="1073" d="M80 496q0-98 17-130.5t54-32.5 53.5 32T221 496t-17.5 134.5T151 666q-37 0-54-35.5T80 496zm205 0q0-176-134-176T17 496q0 183 134 183 39 0 66.5-16t41.5-44 20-58 6-65zM584 38q38 0 54.5 32T655 201q0 98-17.5 134T584 371t-53-35.5T514 201q0-98 17-130.5T584 38zm0 346q134 0 134-183 0-176-134-176T450 201q0 183 134 183zM113 0l456 704h53L166 0h-53zm793 38q37 0 53.5 32T976 201t-17.5 134.5T906 371q-37 0-54-35.5T835 201q0-98 17-130.5T906 38zm0 346q39 0 66.5-16t41.5-44 20-58 6-65q0-176-134-176T772 201q0 183 134 183z"/><glyph glyph-name="guilsinglleft" unicode="‹" horiz-adv-x="339" d="M281 505v-26L132 266 281 59V33L50 266z"/><glyph glyph-name="guilsinglright" unicode="›" horiz-adv-x="339" d="M48 479v26l231-239L48 33v26l149 207z"/><glyph glyph-name="fraction" unicode="⁄" horiz-adv-x="335" d="M458 734h45L-102 0h-44z"/><glyph glyph-name="Euro" unicode="€" horiz-adv-x="596" d="M222 415h219l-10-15H222q0-3-.5-23.5T221 352t.5-23.5.5-22.5h203l-10-15H222q4-89 18-149t37-88.5 46-39T375 4q22 0 45 7.5T468 36t40.5 52.5T524 174h13V42q-44-31-75-41T375-9Q258-9 196 69t-74 222H16l10 15h94q-1 15-1 46t1 48H16l10 15h96q26 298 253 298 59 0 91.5-10t70.5-41V530h-13q0 49-15 85t-39 53-47.5 24.5T375 700q-29 0-52-11t-46-40-37-88-18-146z"/><glyph glyph-name="afii61289" unicode="ℓ" horiz-adv-x="340" d="M174 533l-1-213 43 41q46 44 64 115t9.5 130-30.5 88q-16 20-36 18-49-7-49-179zM305 98l11-4q-5-44-35-73.5T215-9q-63 0-96.5 47T85 200v29l-63-48v36l63 50v249q0 65 13 113t33.5 71.5 45 32.5 48.5.5 43-29.5q33-38 41.5-108T297 452t-68-116l-57-54-1-109q-3-70 17-108t57-32q42 9 60 65z"/><glyph glyph-name="trademark" unicode="™" horiz-adv-x="670" d="M613 472q0-42 34-42v-13H542v13q30 0 30 42v192l-94-251h-10L361 653V525q0-23 1-35.5t5-28.5 14-23.5 26-7.5v-13H293v13q23 0 36 15.5t15.5 33.5 2.5 46v147q-12 19-43 19v13h81l103-226 84 226h72v-13q-31 0-31-36V472zM13 704h249v-82h-13q0 24-9 39.5t-23.5 21-21.5 7-14 1.5h-23V464q0-34 29-34v-13H88v13q29 0 29 34v227H93q-67 0-67-69H13v82z"/><glyph glyph-name="Omega" unicode="Ω" horiz-adv-x="703" d="M642 138h12L628 0H382q7 36 30.5 82.5t47 86.5 42 113.5T520 445q0 73-12 126t-29 81.5-43 45-47 20.5-47 4-47.5-4-47-21-43-45-29.5-81-12-126q0-89 18.5-162.5t42-113.5T271 82.5 302 0H55L29 138h13q13-33 36.5-44.5T141 82h111q-4 14-16 28.5T201 146t-33 32Q58 295 58 450q0 124 73.5 204.5T342 735t210.5-80.5T626 450q0-155-110-272-10-11-33-32t-35-35.5T432 82h111q38 0 62 11.5t37 44.5z"/><glyph glyph-name="estimated" unicode="℮" horiz-adv-x="892" d="M170 610V391h552v215Q608 710 444 710q-161 0-274-100zm274 125q171 0 292-108t121-260H170V125Q284 24 444 24q85 0 160.5 31T734 140h34Q710 75 625.5 37.5T444 0Q273 0 152 107.5T31 367t121 260 292 108z"/><glyph glyph-name="partialdiff" unicode="∂" horiz-adv-x="507" d="M228 4q106 0 136 333-10 35-37 58.5T271 419q-47 0-85.5-51T136 210Q124 91 147.5 47.5T228 4zm20 740q119 0 173.5-109.5T462 335q-10-151-69.5-247.5T228-9Q129-9 80 51.5T41 224q8 92 61 161.5T235 455q38 0 78.5-22.5T367 362q11 139-1.5 222.5t-41 115T248 731q-56 0-103.5-51.5T106 571l-12-4-28 85q21 40 72.5 66T248 744z"/><glyph glyph-name="Delta" unicode="∆" horiz-adv-x="714" d="M71 36h483L313 606zm304 702L669 32 654 0H38l-6 26 1 2 287 692z"/><glyph glyph-name="product" unicode="∏" horiz-adv-x="697" d="M590 592V45q0-117 72-117v-13H410v13q72 0 72 117v544q0 101-72 101H293q-36 0-51.5-24T226 589V45q0-117 67-117v-13H45v13q74 0 74 117v547q0 99-74 99v13h617v-13q-72 0-72-99z"/><glyph glyph-name="summation" unicode="∑" horiz-adv-x="663" d="M161 691l216-375L135-85h129q60 0 109 7.5T455.5-59t60 30.5T557 8t27 43 17.5 44.5T613 141h16L602-98H75l199 338L20 704h570l20-204h-17q-23 96-106 143.5T286 691H161z"/><glyph glyph-name="minus" unicode="−" horiz-adv-x="626" d="M581 222H48v63h533v-63z"/><glyph glyph-name="uni2215" unicode="∕" horiz-adv-x="352" d="M458 734h65L-82 0h-64z"/><glyph glyph-name="uni2219" unicode="∙" horiz-adv-x="250" d="M126 249q-20 0-34 14.5T78 298t14 34.5 34 14.5 34.5-14.5T175 298t-14.5-34.5T126 249z"/><glyph glyph-name="radical" unicode="√" horiz-adv-x="565" d="M359-8l150 870 34-10L363-179l-18-7-197 462q-17 39-43.5 56.5T50 339l-4 11 136 58z"/><glyph glyph-name="infinity" unicode="∞" horiz-adv-x="799" d="M677 406q46-47 46-114.5T677 177q-46-48-113-48-66 0-112 48l-58 64q-57-62-59-64-46-48-112-48t-114 48q-45 47-44.5 114.5T109 407q48 48 114 48 65 0 112-49l59-63q56 61 58 63 46 49 112 49t113-49zm-518-47q-26-28-26-67 0-40 27-67 25-27 63-27 37 0 63 26l60 68q-59 64-61 67-24 27-62 27-37 0-64-27zm469-134q26 28 26 67t-26 67q-27 27-64 27t-62-27l-61-68q58-63 61-66 25-27 62-27t64 27z"/><glyph glyph-name="integral" unicode="∫" horiz-adv-x="352" d="M330 746q-7-16-22.5-23t-31.5 0q-17 7-24 22.5t0 31.5q5 15 23 22 6 1-2.5 7.5T246 813q-5 0-9.5-1.5t-16-11.5-16.5-31-10.5-60 2.5-99l35-441q16-194-11.5-286.5T109-210q-55 0-78 32-17 24-7 47 6 17 22 24t32 0 23-22.5 1-31.5q-7-15-22-22-7-1 2-8 10-8 28-8 4 0 8.5 1.5T135-186t17 31 10.5 60.5T160 5l-35 440q-16 194 12 287t109 93q51 0 78-32 15-21 6-47z"/><glyph glyph-name="approxequal" unicode="≈" horiz-adv-x="515" d="M300 319l-115 43q-20 5-47.5 6.5t-58.5-12T36 316l-9 4q17 43 42 69.5t49 34.5 45.5 10 34.5-2l13-3 114-43q20-5 48-6t59 13.5 42 39.5l10-5q-17-43-42.5-70t-49-35-45-9.5T313 316zm0-179l-115 43q-20 5-47.5 6.5t-58.5-12T36 137l-9 4q17 43 42 69.5t49 34.5 45.5 10 34.5-1l13-4 114-43q20-5 48-6t59 13.5 42 39.5l10-5q-17-43-42.5-70t-49-35-45-9.5T313 136z"/><glyph glyph-name="notequal" unicode="≠" horiz-adv-x="527" d="M480 350H332l-63-134h211v-59H241L181 29l-53 25 48 103H46v59h158l62 134H46v59h248l65 138 53-25-52-113h120v-59z"/><glyph glyph-name="lessequal" unicode="≤" horiz-adv-x="532" d="M162 344l317-165v-74L56 322v45l423 217v-76zM47 48h432v-58H47v58z"/><glyph glyph-name="greaterequal" unicode="≥" horiz-adv-x="532" d="M55 179l317 165L55 508v76l423-217v-45L55 105v74zm0-131h432v-58H55v58z"/><glyph glyph-name="lozenge" unicode="◊" horiz-adv-x="559" d="M438 327L278 639 117 327 278 14zM301 733l208-406L301-79h-45L48 327l208 406h45z"/><glyph glyph-name="zero.taboldstyle" unicode="" horiz-adv-x="551" d="M401 229q0 71-9 118t-26.5 70.5-37.5 32-48 8.5-48-8.5-38-32-27-70.5-9-118q0-70 9-116.5t27-69 38-31T280 4t48 8.5 37.5 31 26.5 69 9 116.5zm104 0q0-119-58.5-178.5T280-9Q174-9 115 51T56 229q0 116 59.5 179T280 471q108 0 166.5-61T505 229z"/><glyph glyph-name="one.taboldstyle" unicode="" horiz-adv-x="473" d="M202 90v273q0 40-19 47t-66-15l-3 12 160 64h15V90q0-27 6-44t19.5-24 23.5-8.5 27-1.5V0H120v12q19 0 30.5 2t25 9 20 24 6.5 43z"/><glyph glyph-name="two.taboldstyle" unicode="" horiz-adv-x="482" d="M395 131h12L370 0H72l101 109q151 149 116 260-17 51-60 70t-80-1q-31-14-32-27-1-4 2-4 18 4 32-8 14-11 15-29.5T156 338q-12-13-30-14.5T95 333q-20 19-15 43 9 37 65 72 18 12 53 18t74.5 3.5 72.5-27 41-68.5q8-45-11-85.5t-48-66-79.5-68.5T167 79l154 3q49 0 74 49z"/><glyph glyph-name="three.taboldstyle" unicode="" horiz-adv-x="527" d="M83-207q-23 25-10 57 7 22 28.5 31t42.5 1q22-8 30.5-29t.5-43q-9-20-30-28-5-1 4.5-9.5t37-16.5 63.5-8q75 0 111.5 50.5T391-64q-2 26-12 50.5T348.5 37 289 80.5 198 102v14q55 9 91 41.5t47 71.5.5 80-42.5 68q-35 25-78 26t-81.5-27T88 303l-15 2q3 46 22.5 80t41 49.5 51 25 43 10.5 25.5 1q59 0 104-37t60.5-88.5-9-110T320 139q74-18 116.5-68T481-37q2-62-20.5-108.5t-60-71T325-253t-74-12q-117 0-168 58z"/><glyph glyph-name="four.taboldstyle" unicode="" horiz-adv-x="568" d="M313 4v346L109 45Q92 14 95.5 9T123 4h190zm195-52h-96v-96q0-38 5-61t17.5-33 22.5-12 30-2v-13H238v13q19 0 30 2.5t23 11.5 17 31 5 58v101H42v14l335 500 35-4V4h96v-52z"/><glyph glyph-name="five.taboldstyle" unicode="" horiz-adv-x="553" d="M501-10q6-64-14.5-115t-59-80.5-85-44.5-96.5-15q-45 0-82.5 12.5t-54 23.5T83-207q-24 26-13 59 7 22 28.5 32.5T143-113q22-7 32-28.5t2-44.5q-6-19-30-30-9-3 9-15 32-21 90-21 95 0 148.5 64.5T421-36Q400 36 311.5 76.5T72 85l60 377h346l-27-93H132l-30-195q177 41 283-19.5T501-10z"/><glyph glyph-name="six.taboldstyle" unicode="" horiz-adv-x="552" d="M406 219q0 105-34 161t-81 56q-57 0-98.5-43.5T151 298q0-149 31.5-221.5T280 4q126 0 126 215zm100 18q0-116-60.5-181T280-9Q45-9 45 315q0 167 76 282.5T314 713q100 0 132-63 6-12 4.5-28T440 595q-14-17-36-19.5T366 587q-17 13-19.5 35t11.5 38q17 21 35 18l1 1q-4 11-40 18-11 2-25 2-83 5-130.5-78T151 340q20 61 65 96t103 35q41 0 74-14.5t53.5-38 34.5-55 19.5-63T506 237z"/><glyph glyph-name="seven.taboldstyle" unicode="" horiz-adv-x="550" d="M76 462h451l-51-87Q381 206 345 61t-36-321H204q7 180 59.5 308.5T462 375H156q-34 0-53-13t-33-45H57z"/><glyph glyph-name="eight.taboldstyle" unicode="" horiz-adv-x="547" d="M402 551q-1 82-37.5 115.5T274 700q-47 0-81.5-31T158 586q0-64 37.5-102.5T317 411q31 10 58.5 49t26.5 91zM286-9Q44-9 44 159q0 62 49 114t120 75q-74 43-104 87T79 538q0 83 56 129t139 46q89 0 140.5-42T466 557q0-46-39.5-93T332 403q182-91 182-214 0-101-62.5-149.5T286-9zm-22 329q-6 3-13.5 6.5T238 333t-12 7q-23-11-43-27.5t-40.5-57T122 163q0-79 46-119T286 4q33 0 63 11.5T403 61t24 85q-1 53-39.5 91T264 320z"/><glyph glyph-name="nine.taboldstyle" unicode="" horiz-adv-x="539" d="M138 240q0-105 34-160t81-55q57 0 98.5 41.5T393 159q0 299-129 299-126 0-126-218zM38 223q0 121 60 184.5T264 471q235 0 235-330 0-194-66.5-300T234-265q-108 0-142 72-16 31 7 58 14 19 37 21.5t41-12.5q18-13 20.5-36.5T186-204q-17-19-38-19-7 0 7-10 25-16 64-19 67-3 103 27t53.5 110T393 116q-19-59-64-92T225-9q-51 0-89 21.5T77.5 69t-30 73.5T38 223z"/><glyph glyph-name="dollar.taboldstyle" unicode="" horiz-adv-x="538" d="M276 4q60 2 94.5 31t38.5 68.5-15.5 81.5-58.5 70l-59 38V4zm-28 432v264q-40-1-72-24.5t-44.5-58 6-77.5 71.5-78zm126-82q49-32 80-69.5t42-74 6.5-71.5T478 72q-13-15-22.5-23.5t-33.5-24-61-24T276-9v-121h-28V-9Q186-6 134.5 8T62 34L42 47v192h8q9-99 53.5-161.5T248 5v307l-79 51Q-30 495 60 635q2 3 6 8.5T86.5 662t36 23.5 53 19T248 713v123h28V713q57-3 107-14.5t72-22.5l22-10V497h-9q-21 191-192 202V418z"/><glyph glyph-name="cent.taboldstyle" unicode="" horiz-adv-x="504" d="M168 242q0-87 37.5-134.5T299 48v409q-21-3-41-14.5T216 408t-35-66-13-100zm299-114l11-5q-11-45-50.5-85.5T318-9v-109h-19V-9q-99 2-161.5 67.5T75 231q0 93 61 163.5T299 471v122h19V471q103 0 137-60 15-26 1-49-10-16-29-21.5t-35 3.5q-17 10-22 29t5 35 28 21q8 0-5 9-28 20-80 20V46q51-3 93 23t56 59z"/><glyph glyph-name="dollar.oldstyle" unicode="" horiz-adv-x="538" d="M276 4q60 2 94.5 31t38.5 68.5-15.5 81.5-58.5 70l-59 38V4zm-28 432v264q-40-1-72-24.5t-44.5-58 6-77.5 71.5-78zm126-82q49-32 80-69.5t42-74 6.5-71.5T478 72q-13-15-22.5-23.5t-33.5-24-61-24T276-9v-121h-28V-9Q186-6 134.5 8T62 34L42 47v192h8q9-99 53.5-161.5T248 5v307l-79 51Q-30 495 60 635q2 3 6 8.5T86.5 662t36 23.5 53 19T248 713v123h28V713q57-3 107-14.5t72-22.5l22-10V497h-9q-21 191-192 202V418z"/><glyph glyph-name="zero.oldstyle" unicode="" horiz-adv-x="551" d="M401 229q0 71-9 118t-26.5 70.5-37.5 32-48 8.5-48-8.5-38-32-27-70.5-9-118q0-70 9-116.5t27-69 38-31T280 4t48 8.5 37.5 31 26.5 69 9 116.5zm104 0q0-119-58.5-178.5T280-9Q174-9 115 51T56 229q0 116 59.5 179T280 471q108 0 166.5-61T505 229z"/><glyph glyph-name="one.oldstyle" unicode="" horiz-adv-x="473" d="M202 90v273q0 40-19 47t-66-15l-3 12 160 64h15V90q0-27 6-44t19.5-24 23.5-8.5 27-1.5V0H120v12q19 0 30.5 2t25 9 20 24 6.5 43z"/><glyph glyph-name="two.oldstyle" unicode="" horiz-adv-x="482" d="M395 131h12L370 0H72l101 109q151 149 116 260-17 51-60 70t-80-1q-31-14-32-27-1-4 2-4 18 4 32-8 14-11 15-29.5T156 338q-12-13-30-14.5T95 333q-20 19-15 43 9 37 65 72 18 12 53 18t74.5 3.5 72.5-27 41-68.5q8-45-11-85.5t-48-66-79.5-68.5T167 79l154 3q49 0 74 49z"/><glyph glyph-name="three.oldstyle" unicode="" horiz-adv-x="527" d="M83-207q-23 25-10 57 7 22 28.5 31t42.5 1q22-8 30.5-29t.5-43q-9-20-30-28-5-1 4.5-9.5t37-16.5 63.5-8q75 0 111.5 50.5T391-64q-2 26-12 50.5T348.5 37 289 80.5 198 102v14q55 9 91 41.5t47 71.5.5 80-42.5 68q-35 25-78 26t-81.5-27T88 303l-15 2q3 46 22.5 80t41 49.5 51 25 43 10.5 25.5 1q59 0 104-37t60.5-88.5-9-110T320 139q74-18 116.5-68T481-37q2-62-20.5-108.5t-60-71T325-253t-74-12q-117 0-168 58z"/><glyph glyph-name="four.oldstyle" unicode="" horiz-adv-x="568" d="M313 4v346L109 45Q92 14 95.5 9T123 4h190zm195-52h-96v-96q0-38 5-61t17.5-33 22.5-12 30-2v-13H238v13q19 0 30 2.5t23 11.5 17 31 5 58v101H42v14l335 500 35-4V4h96v-52z"/><glyph glyph-name="five.oldstyle" unicode="" horiz-adv-x="553" d="M501-10q6-64-14.5-115t-59-80.5-85-44.5-96.5-15q-45 0-82.5 12.5t-54 23.5T83-207q-24 26-13 59 7 22 28.5 32.5T143-113q22-7 32-28.5t2-44.5q-6-19-30-30-9-3 9-15 32-21 90-21 95 0 148.5 64.5T421-36Q400 36 311.5 76.5T72 85l60 377h346l-27-93H132l-30-195q177 41 283-19.5T501-10z"/><glyph glyph-name="six.oldstyle" unicode="" horiz-adv-x="552" d="M406 219q0 105-34 161t-81 56q-57 0-98.5-43.5T151 298q0-149 31.5-221.5T280 4q126 0 126 215zm100 18q0-116-60.5-181T280-9Q45-9 45 315q0 167 76 282.5T314 713q100 0 132-63 6-12 4.5-28T440 595q-14-17-36-19.5T366 587q-17 13-19.5 35t11.5 38q17 21 35 18l1 1q-4 11-40 18-11 2-25 2-83 5-130.5-78T151 340q20 61 65 96t103 35q41 0 74-14.5t53.5-38 34.5-55 19.5-63T506 237z"/><glyph glyph-name="seven.oldstyle" unicode="" horiz-adv-x="550" d="M76 462h451l-51-87Q381 206 345 61t-36-321H204q7 180 59.5 308.5T462 375H156q-34 0-53-13t-33-45H57z"/><glyph glyph-name="eight.oldstyle" unicode="" horiz-adv-x="547" d="M402 551q-1 82-37.5 115.5T274 700q-47 0-81.5-31T158 586q0-64 37.5-102.5T317 411q31 10 58.5 49t26.5 91zM286-9Q44-9 44 159q0 62 49 114t120 75q-74 43-104 87T79 538q0 83 56 129t139 46q89 0 140.5-42T466 557q0-46-39.5-93T332 403q182-91 182-214 0-101-62.5-149.5T286-9zm-22 329q-6 3-13.5 6.5T238 333t-12 7q-23-11-43-27.5t-40.5-57T122 163q0-79 46-119T286 4q33 0 63 11.5T403 61t24 85q-1 53-39.5 91T264 320z"/><glyph glyph-name="nine.oldstyle" unicode="" horiz-adv-x="539" d="M138 240q0-105 34-160t81-55q57 0 98.5 41.5T393 159q0 299-129 299-126 0-126-218zM38 223q0 121 60 184.5T264 471q235 0 235-330 0-194-66.5-300T234-265q-108 0-142 72-16 31 7 58 14 19 37 21.5t41-12.5q18-13 20.5-36.5T186-204q-17-19-38-19-7 0 7-10 25-16 64-19 67-3 103 27t53.5 110T393 116q-19-59-64-92T225-9q-51 0-89 21.5T77.5 69t-30 73.5T38 223z"/><glyph glyph-name="cent.oldstyle" unicode="" horiz-adv-x="504" d="M168 242q0-87 37.5-134.5T299 48v409q-21-3-41-14.5T216 408t-35-66-13-100zm299-114l11-5q-11-45-50.5-85.5T318-9v-109h-19V-9q-99 2-161.5 67.5T75 231q0 93 61 163.5T299 471v122h19V471q103 0 137-60 15-26 1-49-10-16-29-21.5t-35 3.5q-17 10-22 29t5 35 28 21q8 0-5 9-28 20-80 20V46q51-3 93 23t56 59z"/><glyph glyph-name="fi" unicode="ﬁ" horiz-adv-x="524" d="M486 8V0H318v8q27 8 33 23t6 57v296q0 65-50 65H170V85q0-40 10.5-56T218 8V0H43v8q27 6 33.5 20.5T83 85v364H19l-2 13h66v11q0 151 55.5 211.5T307 745q48 0 84.5-21.5T436 663t-8-60q-13-17-35.5-20T354 593q-18 14-20.5 35.5T345 668q17 20 34 19 14-1 6 13-14 25-59 31-9 1-19 1-17 0-31-2.5t-35-16-35.5-38-25-73.5T170 486v-24h275V88q0-43 7.5-58T486 8z"/><glyph glyph-name="fl" unicode="ﬂ" horiz-adv-x="519" d="M496 13V0H328v13q27 8 33 21t6 54v558q0 59-69 70-12 4-26.5 2t-30-6-30-20.5-25.5-41-18-68-7-100.5v-20h107l-2-13H161V85q0-40 10.5-53.5T210 12V0H34v12q27 6 33.5 19.5T74 85v364H9l-1 13h66v40q0 124 45 183.5T243 745q59 0 100-25l112 26V88q0-42 7-55t34-20z"/><glyph glyph-name="NULL" horiz-adv-x="0"/><glyph glyph-name="CR" horiz-adv-x="278"/><glyph glyph-name="two.superior" horiz-adv-x="259" d="M201 445h13l-18-66H30l101 152q50 75 14 117-23 27-60 17-35-9-42-47l-13 1q1 25 10.5 42.5t22 25.5T87 699.5t21 4.5h8q34 0 56.5-22t22.5-53q0-36-52-104L72 420h89q25 0 40 25z"/><glyph glyph-name="one.superior" horiz-adv-x="209" d="M131 430q0-16 6-25t12.5-10.5T167 393v-13H50v13q12 0 19 2t13.5 10.5T89 430v199q0 36-39 7l-8 12 73 57h16V430z"/><glyph glyph-name="a.superior" horiz-adv-x="297" d="M154 582q-88-20-88-65 0-14 10-27t32-13q19 0 32.5 16t13.5 30v59zm84-91l11-4q-2-13-16-23.5T199 453q-5 0-12.5 1t-20 11-12.5 27q-4-18-25-28.5T80 453h-6.5L59 456l-18 8-14.5 16-6.5 26q0 37 28.5 53T154 595v29q0 41-19.5 58T84 685q-20-11-20-17 10 0 17-9 12-19-6-34-7-6-17-4.5T42 630q-9 10-3 25 11 24 40 39 9 4 21.5 6.5T121 704h8q40 0 56-27t16-78v-89q0-4 .5-9.5t6.5-14 16-8.5q11-1 14 13z"/><glyph glyph-name="three.superior" horiz-adv-x="263" d="M223 474q1-53-32.5-77T117 373q-49 0-76 27-13 11-5 26 4 10 13 14.5t19 .5 14.5-13.5.5-19.5q-5-10-12-12-4-1 4-5 14-6 42-6 33 0 50 20.5t13 57.5q-7 67-86 72v13q33 5 50.5 26t15 45.5T137 661q-22 19-52 8.5T49 629l-14 1q1 21 10.5 36t20 22T90 699t20 4.5 11 .5q36 0 59.5-27.5t17-64T151 553q34-8 52.5-30t19.5-49z"/><glyph glyph-name="o.superior" horiz-adv-x="314" d="M140 467q15 0 25 3t21 13 16.5 33.5T208 577q0 38-6 62.5t-17 35-21 14-24 3.5-24-3-21-13.5T78 640t-6-63q0-37 6-61t17-33.5 20.5-12.5 24.5-3zm0 238q112 0 112-128 0-123-112-123T28 577q0 128 112 128z"/></font>
</defs>
</svg>
